<?xml version="1.0" encoding="utf-8"?>
<!-- Generator: Adobe Illustrator 22.0.1, SVG Export Plug-In . SVG Version: 6.00 Build 0)  -->
<svg version="1.1" id="Calque_1" xmlns="http://www.w3.org/2000/svg" xmlns:xlink="http://www.w3.org/1999/xlink" x="0px" y="0px"
	 viewBox="0 0 432 432" style="enable-background:new 0 0 432 432;" xml:space="preserve">
<style type="text/css">
	.st0{fill:#B3A6AD;}
	.st1{fill:#B6B155;}
	.st2{fill:#990033;}
	.st3{fill:#660A1E;}
	.st4{fill:#A7A6AA;}
	.st5{fill:#EF798A;}
	.st6{fill:#FFB2B2;}
	.st7{fill:#A70808;}
	.st8{fill:#DF4646;}
	.st9{fill:#FF7878;}
	.st10{fill:#F2A297;}
	.st11{fill:#BA1717;}
	.st12{fill:#543A3C;}
	.st13{fill:#CA1542;}
	.st14{fill:#E74C6E;}
	.st15{fill:#006837;}
	.st16{fill:#004924;}
	.st17{fill:#D33757;}
	.st18{fill:#E06581;}
	.st19{fill:#014724;}
	.st20{fill:#E14666;}
	.st21{fill:#ABDFD3;}
	.st22{fill:#C5EFE4;}
	.st23{fill:#DC4160;}
	.st24{fill:#A888AD;}
	.st25{fill:#B99BBF;}
	.st26{fill:#F8A362;}
	.st27{fill:#F9B587;}
	.st28{fill:#F2F2F2;}
	.st29{fill:#FDFFFE;}
	.st30{fill:#F2D668;}
	.st31{fill:#F9E4A5;}
	.st32{fill:#F5A6DF;}
	.st33{fill:#F4CEEB;}
	.st34{fill:#CCCCCC;}
	.st35{fill:#FBB03B;}
	.st36{fill:#FFFFFF;}
	.st37{fill:#ECCDD2;}
	.st38{fill:#8AD7AB;}
	.st39{fill:#8FC8E2;}
	.st40{fill:#D3CE94;}
	.st41{fill:#F9CFCF;}
	.st42{fill:#EDE9C3;}
	.st43{fill:#9BD6EA;}
	.st44{fill:#F8D9C4;}
	.st45{fill:#EB678B;}
	.st46{fill:#A5394C;}
	.st47{fill:#DD726C;}
	.st48{fill:#E5847A;}
	.st49{fill:#EF8A7F;}
	.st50{fill:#3CBC91;}
	.st51{fill:#8CC63F;}
	.st52{fill:#B78D5C;}
	.st53{fill:#2A2A2B;}
	.st54{fill:#EBCEC6;}
	.st55{fill:#F49090;}
	.st56{fill:#B3D8E8;}
	.st57{fill:#EFE6E4;}
	.st58{fill:#FBD8E3;}
	.st59{fill:#E48397;}
	.st60{fill:#B2E6F9;}
	.st61{fill:#42210B;}
	.st62{fill:#E0E0E0;}
	.st63{fill:#9D6D47;}
	.st64{fill:#EFD1B4;}
	.st65{fill:#0071BC;}
	.st66{fill:#679CBA;}
	.st67{fill:#DBDCDD;}
	.st68{fill:#DDB28E;}
	.st69{fill:#C69C6D;}
	.st70{fill:#603813;}
	.st71{fill:#8C6239;}
	.st72{fill:#E9EAE4;}
	.st73{fill:#F7931E;}
	.st74{fill:#754C24;}
	.st75{fill:#A67C52;}
	.st76{fill:#9E1E28;}
	.st77{fill:#F15A24;}
	.st78{fill:#E04819;}
	.st79{fill:#009245;}
	.st80{fill:#00552B;}
	.st81{fill:#84821B;}
	.st82{fill:#CD271F;}
	.st83{fill:#BB8130;}
	.st84{fill:#BBBABF;}
	.st85{fill:#E0E0E2;}
	.st86{fill:#C79359;}
	.st87{fill:#BA844F;}
	.st88{fill:#29ABE2;}
	.st89{fill:#EEB752;}
	.st90{fill:#A8B0B2;}
	.st91{fill:#035684;}
	.st92{fill:#EFBF73;}
	.st93{fill:#D3A272;}
	.st94{fill:#C3C8C9;}
	.st95{fill:#EBDCC9;}
	.st96{fill:#EAD696;}
	.st97{fill:#E57ACC;}
	.st98{fill:#8D5F96;}
	.st99{fill:#FFD9E4;}
	.st100{fill:#60BA84;}
	.st101{fill:#CCEDE5;}
	.st102{fill:#E8E8E8;}
	.st103{fill:#F9D2D2;}
	.st104{fill:#B9B9BA;}
	.st105{fill:#939393;}
	.st106{fill:#62612A;}
	.st107{fill:#79484E;}
	.st108{fill:#C2BE5C;}
	.st109{fill:#F1C3A2;}
	.st110{fill:#B2625C;}
	.st111{fill:#E1AE9D;}
	.st112{fill:#7597A0;}
	.st113{fill:#F2DBD5;}
	.st114{fill:#B27C62;}
	.st115{fill:#E6E6E6;}
	.st116{fill:#AF8864;}
	.st117{fill:#F1E9DF;}
	.st118{fill:#9E6A56;}
	.st119{fill:#2E3192;}
	.st120{fill:#EAEAEA;}
	.st121{fill:#1B1464;}
	.st122{fill:#EAE5E6;}
	.st123{fill:#7F9BEA;}
	.st124{fill:#EEBCC5;}
	.st125{fill:#DB8E98;}
	.st126{fill:#B58187;}
	.st127{fill:#80424C;}
	.st128{fill:#F3EED0;}
	.st129{fill:#CCD8B0;}
	.st130{fill:#46653B;}
	.st131{fill:#345129;}
	.st132{fill:#C9A6AC;}
	.st133{fill:#D6B6BA;}
	.st134{fill:#DE7139;}
	.st135{fill:#F2CB56;}
	.st136{fill:#DE3A55;}
	.st137{fill:#CD9586;}
	.st138{fill:#B47468;}
	.st139{fill:#F5DCD8;}
	.st140{fill:#C4BCBF;}
	.st141{fill:#E0B182;}
	.st142{fill:#9B6B61;}
	.st143{fill:#DBB89B;}
	.st144{fill:#DED2D3;}
	.st145{fill:#7D6364;}
	.st146{fill:#F1A3A1;}
	.st147{fill:#B3B3B3;}
	.st148{fill:#F9CEBE;}
	.st149{fill:#142738;}
	.st150{fill:#911928;}
	.st151{fill:#A32F4E;}
	.st152{fill:#7A0118;}
	.st153{fill:#DAE576;}
	.st154{fill:#E87F38;}
	.st155{fill:#F47621;}
	.st156{fill:#BC5B1B;}
	.st157{fill:#E6EF6A;}
	.st158{fill:#7C0101;}
	.st159{fill:#6DA84A;}
	.st160{fill:#83AF6E;}
	.st161{fill:#39B54A;}
	.st162{fill:#812791;}
	.st163{fill:#FC540D;}
	.st164{fill:#DD4410;}
	.st165{fill:#D3CE6A;}
	.st166{fill:#F2C8AD;}
	.st167{fill:#EFB58E;}
	.st168{fill:#F27622;}
	.st169{fill:#8DA34F;}
	.st170{fill:#ACBF77;}
	.st171{fill:#D6C188;}
	.st172{fill:#E5CED4;}
	.st173{fill:#15104F;}
	.st174{fill:#E5E3E3;}
</style>
<g>
	<g>
		<g>
			
				<ellipse transform="matrix(0.7784 -0.6278 0.6278 0.7784 -130.7463 107.149)" class="st64" cx="86.4" cy="238.8" rx="5.8" ry="8.3"/>
			
				<ellipse transform="matrix(0.4168 -0.909 0.909 0.4168 -104.5401 314.0308)" class="st64" cx="192.5" cy="238.5" rx="8.3" ry="5.8"/>
			<g>
				<path class="st34" d="M198.8,242.9c-0.1,0.8-0.2,1.5-0.4,2.3c-0.5,1.7-1.1,3.2-2,4.7c-0.2,0.4-0.5,0.8-0.8,1.3
					c-0.5,0.8-1.1,1.5-1.6,2.2c-5.2,6.7-11.6,12.1-19.4,15.9c-3,1.5-6,2.9-9,4.3c-1.8,0.8-3.6,1.3-5.5,1.7c0.4,0.9,0.8,1.9,1.2,2.9
					c1.6,3.9,3,7.9,4,12c0.9,3.7,1.4,7.6,1.5,11.4c0,0.6,0,1.2-0.1,1.8c-0.4,1.8-1.3,3.1-3.2,3.6c-1.3,0.4-2.6,0.5-3.9,0.5
					c-2.4,0-4.8,0-6.2,0c-5.1-0.2-9.2-0.4-13.3-0.5c-2.4-0.1-4.8-0.2-7.2-0.2c-4.3-0.1-8.7-0.1-13-0.2c-2.1,0-4.3-0.2-6.4-0.4
					c-0.5,0-1.1-0.2-1.6-0.5c-1.2-0.5-1.9-1.4-2.2-2.7c-0.4-1.7-0.5-3.4-0.4-5.2c0.4-4.9,1.6-9.6,3.3-14.2c1.1-3.1,2.3-6.1,3.7-9.1
					c-0.1,0-0.3-0.1-0.4-0.1c-3.2-1-6.1-2.6-8.9-4.3c-2.6-1.6-5-3.5-7.4-5.5c-2.9-2.4-5.8-4.8-8.4-7.5c-0.4-0.5-0.9-0.9-1.3-1.4
					c-0.9-1-1.7-2-2.5-3c-0.1-0.1-0.2-0.3-0.3-0.4c-0.9-1.2-1.6-2.5-1.9-4c-0.3-1.3-0.1-2.4,0.7-3.5c1.8-2.5,4.2-4.2,7-5.4
					c0.3-0.1,0.6-0.2,0.9-0.3c1.3-0.2,2.3,0.1,3.1,1.2c0.5,0.7,0.9,1.3,1.3,2c0.1,0.1,0.2,0.3,0.2,0.4c0.6,1.1,1.3,2.1,2,3.1
					c1,1.4,2.1,2.8,3.2,4.1c0.3,0.3,0.6,0.6,0.9,0.9c4.6,4.1,9.7,7.6,14.9,10.8c0.9,0.6,1.9,1.1,2.8,1.7c0.2-0.3,0.4-0.6,0.6-0.9
					c0.9-1.4,1.9-2.7,2.9-4c1.5-1.9,3.5-2.7,5.9-2.9c4-0.3,7.9-0.2,11.9-0.1c0.8,0,1.6,0.1,2.4,0.2c1.5,0.2,2.8,0.9,3.8,2
					c0.8,0.9,1.6,1.9,2.3,2.9c0.2,0.2,0.3,0.5,0.5,0.7c1.8-0.6,3.6-1.1,5.3-1.7c7.7-2.9,14.7-7,20.7-12.6c0.5-0.5,1.1-1,1.6-1.5
					c0.5-0.5,1-1,1.4-1.6c0.6-0.7,1.1-1.4,1.6-2.2c0.2-0.3,0.4-0.6,0.6-0.9c0.6-0.8,1.3-1.4,2.3-1.6c3.2-0.5,6.3-0.8,9.5-0.3
					C197.6,239.1,198.7,240.4,198.8,242.9z"/>
				<g>
					<path class="st4" d="M131.6,264.7c0.1-0.7,0.1-1.4,0.2-2.1c0-0.3,0.2-0.5,0.3-0.8c0.7-1.4,2.4-1.6,3.5-0.4
						c0.5,0.5,0.7,1.2,0.9,1.8c0.4,1.7,0.6,3.5,0.7,5.2c0.1,1.8,0.2,3.6,0.4,5.3c0.1,1.3,0.2,1.3,1.5,1.5c0.9,0.1,1.7,0.4,2.5,0.6
						c1.2,0.3,2.1,1.1,2.6,2.3c0.5,1.1,0.7,2.2,0.8,3.4c0.3,2.9,0.5,5.8,0.7,8.8c0.2,3.2,0.4,6.4,0.6,9.6c0.1,0.8-0.1,1.6-0.5,2.4
						c-0.6,1.2-2.1,1.2-2.8,0.2c-0.5-0.7-0.8-1.6-0.9-2.5c-0.5-4.5-0.9-8.9-1.4-13.3c-0.2-1.8-0.4-3.6-0.7-5.4
						c-0.3-1.6-0.2-1.4-1.7-1.6c-0.5-0.1-1.1-0.2-1.6-0.3c-2.1-0.5-3.4-1.8-3.9-3.9c-0.3-1.1-0.4-2.2-0.5-3.3
						C132,269.6,131.8,267.1,131.6,264.7z"/>
					<path class="st4" d="M196.4,249.8c-0.2,0.4-0.5,0.8-0.8,1.3c-0.5,0.8-1.1,1.5-1.6,2.2c-0.2-0.1-0.5-0.2-0.7-0.2
						c-2-0.8-4-1.7-5.9-2.5c-2.7-1.2-5.4-2.4-8.2-3.3c-0.3-0.1-0.6-0.2-0.9-0.4c0.5-0.5,1.1-1,1.6-1.5c0.5-0.5,1-1,1.4-1.6
						c4.6,1.4,9.2,3.1,13.6,5.2C195.3,249.1,195.8,249.5,196.4,249.8z"/>
					<path class="st4" d="M100.2,245.7c-0.6,0.7-1.2,1.4-1.9,2c-2.5,2.4-5,4.8-7.6,7.1c-0.3,0.3-0.7,0.6-1.1,0.9c-0.9-1-1.7-2-2.5-3
						c1.9-1.9,3.9-3.7,5.8-5.6c1.6-1.6,3.2-3.3,5-4.8c0,0,0,0,0,0c0.1,0.1,0.2,0.3,0.2,0.4C98.8,243.7,99.5,244.7,100.2,245.7z"/>
					<path class="st4" d="M135.4,300.6c-1.1,0-2-0.9-2-2c0-1.1,0.9-2,2-2c1.1,0,2,0.9,2,2C137.3,299.7,136.4,300.6,135.4,300.6z"/>
					<path class="st4" d="M135.4,293.6c-1.1,0-2-0.9-2-2c0-1.1,0.9-2,2-2c1.1,0,2,0.9,2,2C137.3,292.7,136.4,293.6,135.4,293.6z"/>
					<path class="st4" d="M135.4,286.7c-1.1,0-2-0.9-2-2c0-1.1,0.9-2,2-2c1.1,0,2,0.9,2,2C137.3,285.8,136.4,286.7,135.4,286.7z"/>
				</g>
			</g>
			<g>
				<path class="st64" d="M174.7,229.7c-0.2,5.5-1.8,10.2-4.7,14.2c-2,2.7-4.5,5-7.7,6.9c-5.1,3.1-10.6,5-16.4,5.8
					c-2.6,0.4-5.3,0.5-7.9,0.6c-2-0.1-3.9,0-5.9-0.2c-2.9-0.2-5.8-0.7-8.5-1.6c-2.9-0.9-5.5-2.6-7.9-4.5c-3.4-2.8-6-6.1-7.8-10
					c-0.5-1.1-1-2.3-1.3-3.6c-0.5-1.6-0.8-3.3-0.9-5c-0.2-2.4-0.2-4.7,0.1-7.1c0.5-5.2,2.3-9.9,5.4-14.1
					c5.4-7.4,12.7-11.9,21.7-13.5c3.1-0.6,6.2-0.9,9.3-0.8c6.1,0.2,11.9,1.6,17.3,4.7c6.6,3.8,11,9.5,13.6,16.6
					C174.3,221.8,174.9,225.7,174.7,229.7z"/>
				<path d="M174.7,229.7c-0.2,5.5-1.8,10.2-4.7,14.2c0,0,0,0,0,0c-1.1-4-2.3-8.1-4.1-11.9c-0.9-1.8-1.8-3.6-2.8-5.3
					c-1-1.7-2.3-3.2-3.7-4.7c-3.1-3.2-6.2-6.3-9.3-9.5c-1.8-1.9-3.5-3.8-5.2-5.8c-1.8-2.2-3.3-4.7-4.3-7.4c0-0.1-0.1-0.2-0.2-0.4
					c-0.1,0.1-0.2,0.1-0.2,0.2c-1.9,2.5-4.2,4.5-6.8,6.3c-3.2,2.3-6.4,4.6-9.5,7c-1.1,0.8-2.1,1.7-3.2,2.6c-4.6,3.8-7.8,8.5-10,14
					c-1.1,2.8-2,5.7-2.6,8.7c-0.2,1.1-0.3,2.2-0.4,3.3c-0.5-1.1-1-2.3-1.3-3.6c-0.5-1.6-0.8-3.3-0.9-5c-0.2-2.4-0.2-4.7,0.1-7.1
					c0.5-5.2,2.3-9.9,5.4-14.1c5.4-7.4,12.7-11.9,21.7-13.5c3.1-0.6,6.2-0.9,9.3-0.8c6.1,0.2,11.9,1.6,17.3,4.7
					c6.6,3.8,11,9.5,13.6,16.6C174.3,221.8,174.9,225.7,174.7,229.7z"/>
				<g>
					<path d="M152.5,228c0,1.7-0.4,3-1.3,4.1c-1.7,2.1-4.6,1.9-6.1-0.3c-0.6-0.9-0.8-1.9-1-3c-0.3-1.4,0-2.8,0.3-4.2
						c0.4-1.5,1.3-2.6,2.8-2.9c1.7-0.3,3,0.4,3.9,1.7C152.2,225,152.5,226.6,152.5,228z"/>
					<path d="M129.6,228.8c0,1.1-0.1,2.2-0.7,3.2c-0.7,1.2-1.8,1.9-3.3,1.8c-0.8-0.1-1.4-0.3-1.9-0.9c-0.4-0.4-0.8-0.9-1.1-1.5
						c-0.7-1.4-1-2.8-1-4.4c0-1.2,0.5-2.3,1.3-3.2c0.9-1.2,2.6-1.4,4-0.7c0.9,0.4,1.5,1.2,2,2C129.4,226.3,129.6,227.6,129.6,228.8z
						"/>
				</g>
				<g>
					<path d="M147,241.4c0,0.5,0,1-0.2,1.5c-0.1,0.3-0.2,0.5-0.3,0.8c-0.6,1.4-1.4,2.6-2.3,3.5c-1.3,1.4-3,2.3-5.2,2.7
						c-0.4,0.1-0.8,0.1-1.3,0.1c-2.8-0.3-5.3-1.1-7.2-2.8c-1.1-0.9-2-2.1-2.7-3.6l0,0c-0.2-0.4-0.3-0.7-0.5-1.1
						c-0.3-0.7-0.1-1.2,0.6-1.5c0.4-0.1,0.8-0.2,1.2-0.3c0.8-0.1,1.6-0.1,2.4-0.1c2.1,0,4.1,0,6.2-0.1c2.1-0.1,4.2-0.2,6.2-0.3
						c0.5,0,1-0.1,1.5-0.1C146.5,240.1,147,240.5,147,241.4z"/>
					<path class="st36" d="M147,241.4c0,0.5,0,1-0.2,1.5c-0.1,0.3-0.2,0.5-0.3,0.8h-18.6l0,0c-0.2-0.4-0.3-0.7-0.5-1.1
						c-0.3-0.7-0.1-1.2,0.6-1.5c0.4-0.1,0.8-0.2,1.2-0.3c0.8-0.1,1.6-0.1,2.4-0.1c2.1,0,4.1,0,6.2-0.1c2.1-0.1,4.2-0.2,6.2-0.3
						c0.5,0,1-0.1,1.5-0.1C146.5,240.1,147,240.5,147,241.4z"/>
					<path class="st8" d="M144.1,247.2c-1.3,1.4-3,2.3-5.2,2.7c-0.4,0.1-0.8,0.1-1.3,0.1c-2.8-0.3-5.3-1.1-7.2-2.8
						c2-0.4,4.4-0.6,7-0.6C140,246.7,142.2,246.9,144.1,247.2z"/>
				</g>
			</g>
			<path class="st34" d="M133.3,138.8c0.2-0.3,0.5-0.6,0.7-1c3.9-5.5,9.3-8.8,15.7-10.3c3.1-0.7,6.3-0.7,9.4,0.3
				c1.6,0.5,3,1.3,4.3,2.4c0.7,0.6,1.2,1.4,1.9,2.1c0.3,0,0.8-0.1,1.3-0.1c3.1-0.2,6,0.4,8.6,2.2c2.6,1.8,4,4.4,4.7,7.4
				c0.3,1.4,0.2,2.8,0.1,4.2c0,0.1,0,0.3,0,0.5c0.2,0,0.4-0.1,0.6-0.1c1.8-0.5,3.6-0.7,5.5-0.7c7.9,0.2,15.6,5.2,17.2,14.9
				c0.7,4.4-0.1,8.5-1.9,12.5c-1.8,3.9-4.4,7.2-8.1,9.5c-1.1,0.7-2.2,1.5-3.2,2.3c-1.8,1.4-3.2,3.1-4.2,5.2c-1,2.1-1.9,4.2-2.7,6.3
				c-1.8,4.6-3.6,9.2-5.4,13.8c-0.6,1.4-1,2.9-1.5,4.4c-0.2,0.5-0.4,1-0.7,1.3c-1.2,1.1-3.1,1.7-4.6,0.4c-0.2-0.1-0.3-0.3-0.4-0.4
				c-3.1-3.3-7-5.6-11.2-7.1c-4.6-1.7-9.4-2.9-14.3-3.5c-3.9-0.5-7.9-0.5-11.8-0.2c-2.4,0.2-4.8,0.4-7.2,0.9
				c-2.5,0.5-4.9,1.2-7.3,2.1c-2,0.7-4.1,1.1-6.2,1.6c-0.8,0.2-1.4-0.2-1.6-1c-0.3-0.9-0.5-1.8-0.6-2.8c-0.4-4.2-0.2-8.3,0.1-12.5
				c0.3-3.4,0.6-6.8,1-10.1c0.2-2,0.4-4,0.8-6c0.4-2,0.1-3.8-0.9-5.6c-1.3-2.4-2.3-4.8-3-7.4c-0.8-2.9-1.3-5.9-1.2-8.9
				c0-2.7,0.5-5.3,1.5-7.8c1.8-4.5,5.2-7.5,9.7-9.3c3.9-1.5,7.8-1.6,11.8-0.5C131.2,138.1,132.2,138.4,133.3,138.8z"/>
		</g>
		<g>
			<ellipse class="st4" cx="76" cy="231.4" rx="22" ry="3.7"/>
			<g>
				<path class="st5" d="M85,232.5H67.5c-2.7,0-4.9-2.2-4.9-4.9v-11.9c0-2.7,2.2-4.9,4.9-4.9H85c2.7,0,4.9,2.2,4.9,4.9v11.9
					C90,230.3,87.7,232.5,85,232.5z"/>
				<path class="st54" d="M68,216.6c-0.1,0.4-0.2,0.7-0.3,1.1c-0.2,0.5-0.4,1.1-0.7,1.6c-0.3,0.5-0.7,0.9-1.3,1.2
					c-1,0.5-2.1,0.2-2.8-0.7c-0.3-0.4-0.5-0.8-0.6-1.2c-0.5-1.8-0.7-3.6-0.5-5.5c0.2-1.7,1.1-2.8,2.7-3.4c0.9-0.4,1.8-0.5,2.7-0.7
					c2.6-0.4,5.1-0.5,7.7-0.5c1.3,0,2.6,0,3.9,0c1.7,0,3.4,0,5.1,0.3c1.2,0.2,2.4,0.5,3.5,1c0.6,0.2,1.1,0.6,1.6,1
					c0.9,0.8,1.4,1.8,1.5,3c0.1,1.1,0,2.1-0.2,3.1c-0.1,0.4-0.1,0.8-0.2,1.1c-0.3,1-1.2,1.7-2.3,1.5c0.2-5.9-1.7,1.2-2.3,1.4
					c-1.1,0.3-2.1-0.2-2.7-1.1c-0.3-0.6-0.4-1.2-0.5-1.8c-0.1-0.4-0.1-0.8-0.2-1.2c-0.1-0.5-0.2-1.6-0.7-1.7c-0.1,0-0.2,1.4-0.2,1.6
					c-0.1,0.7-0.2,1.4-0.3,2.1c-0.1,0.6-0.3,1.2-0.7,1.7c-0.9,1.2-2.5,1.4-3.7,0.4c-0.4-0.3-0.7-0.7-0.9-1.1
					c-0.3-0.6-0.6-1.2-0.9-1.9c-0.1-0.3-0.2-0.6-0.3-0.9c-0.1,0.1-0.2,0.3-0.3,0.4c-0.3,0.4-0.6,0.8-1,1.1c-1.3,1.2-3,1-4.2-0.3
					c-0.3-0.4-0.6-0.8-0.8-1.2C68.1,216.9,68.1,216.8,68,216.6z"/>
			</g>
		</g>
	</g>
	<g>
		<g>
			
				<ellipse transform="matrix(0.7784 -0.6278 0.6278 0.7784 -95.6786 206.494)" class="st64" cx="244.7" cy="238.8" rx="5.8" ry="8.3"/>
			
				<ellipse transform="matrix(0.4168 -0.909 0.909 0.4168 -12.243 457.8845)" class="st64" cx="350.7" cy="238.5" rx="8.3" ry="5.8"/>
			<path d="M333,228.2c-0.2,3.7-1,7.6-2.4,11.9c-16.4,48.1-78,40.6-93.8,34.7c19.3-2.1,22.6-35.3,27.7-53.2c0.7-2.5,1.5-4.7,2.3-6.5
				v0c0.7-1.4,1.6-2.8,2.5-4.1c5.4-7.4,12.7-11.9,21.7-13.5c3.1-0.6,6.2-0.9,9.3-0.8c6.1,0.2,11.9,1.6,17.3,4.7
				c6.6,3.8,11,9.5,13.6,16.6C332.3,221.3,333,224.7,333,228.2z"/>
			<g>
				<path class="st34" d="M357,242.9c-0.1,0.8-0.2,1.5-0.4,2.3c-0.5,1.7-1.1,3.2-2,4.7c-0.2,0.4-0.5,0.8-0.8,1.3
					c-0.5,0.8-1.1,1.5-1.6,2.2c-5.2,6.7-11.6,12.1-19.4,15.9c-3,1.5-6,2.9-9,4.3c-1.8,0.8-3.6,1.3-5.5,1.7c0.4,0.9,0.8,1.9,1.2,2.9
					c1.6,3.9,3,7.9,4,12c0.9,3.7,1.4,7.6,1.5,11.4c0,0.6,0,1.2-0.1,1.8c-0.4,1.8-1.3,3.1-3.2,3.6c-1.3,0.4-2.6,0.5-3.9,0.5
					c-2.4,0-4.8,0-6.2,0c-5.1-0.2-9.2-0.4-13.3-0.5c-2.4-0.1-4.8-0.2-7.2-0.2c-4.3-0.1-8.7-0.1-13-0.2c-2.1,0-4.3-0.2-6.4-0.4
					c-0.5,0-1.1-0.2-1.6-0.5c-1.2-0.5-1.9-1.4-2.2-2.7c-0.4-1.7-0.5-3.4-0.4-5.2c0.4-4.9,1.6-9.6,3.3-14.2c1.1-3.1,2.3-6.1,3.7-9.1
					c-0.1,0-0.3-0.1-0.4-0.1c-3.2-1-6.1-2.6-8.9-4.3c-2.6-1.6-5-3.5-7.4-5.5c-2.9-2.4-5.8-4.8-8.4-7.5c-0.4-0.5-0.9-0.9-1.3-1.4
					c-0.9-1-1.7-2-2.5-3c-0.1-0.1-0.2-0.3-0.3-0.4c-0.9-1.2-1.6-2.5-1.9-4c-0.3-1.3-0.1-2.4,0.7-3.5c1.8-2.5,4.2-4.2,7-5.4
					c0.3-0.1,0.6-0.2,0.9-0.3c1.3-0.2,2.3,0.1,3.1,1.2c0.5,0.7,0.9,1.3,1.3,2c0.1,0.1,0.2,0.3,0.2,0.4c0.6,1.1,1.3,2.1,2,3.1
					c1,1.4,2.1,2.8,3.2,4.1c0.3,0.3,0.6,0.6,0.9,0.9c4.6,4.1,9.7,7.6,14.9,10.8c0.9,0.6,1.9,1.1,2.8,1.7c0.2-0.3,0.4-0.6,0.6-0.9
					c0.9-1.4,1.9-2.7,2.9-4c1.5-1.9,3.5-2.7,5.9-2.9c4-0.3,7.9-0.2,11.9-0.1c0.8,0,1.6,0.1,2.4,0.2c1.5,0.2,2.8,0.9,3.8,2
					c0.8,0.9,1.6,1.9,2.3,2.9c0.2,0.2,0.3,0.5,0.5,0.7c1.8-0.6,3.6-1.1,5.3-1.7c7.7-2.9,14.7-7,20.7-12.6c0.5-0.5,1.1-1,1.6-1.5
					c0.5-0.5,1-1,1.4-1.6c0.6-0.7,1.1-1.4,1.6-2.2c0.2-0.3,0.4-0.6,0.6-0.9c0.6-0.8,1.3-1.4,2.3-1.6c3.2-0.5,6.3-0.8,9.5-0.3
					C355.9,239.1,356.9,240.4,357,242.9z"/>
				<g>
					<path class="st4" d="M293.6,300.6c-1.1,0-2-0.9-2-2c0-1.1,0.9-2,2-2c1.1,0,2,0.9,2,2C295.6,299.7,294.7,300.6,293.6,300.6z"/>
					<path class="st4" d="M293.6,293.6c-1.1,0-2-0.9-2-2c0-1.1,0.9-2,2-2c1.1,0,2,0.9,2,2C295.6,292.7,294.7,293.6,293.6,293.6z"/>
					<path class="st4" d="M289.8,264.7c0.1-0.7,0.1-1.4,0.2-2.1c0-0.3,0.2-0.5,0.3-0.8c0.7-1.4,2.4-1.6,3.5-0.4
						c0.5,0.5,0.7,1.2,0.9,1.8c0.4,1.7,0.6,3.5,0.7,5.2c0.1,1.8,0.2,3.6,0.4,5.3c0.1,1.3,0.2,1.3,1.5,1.5c0.9,0.1,1.7,0.4,2.5,0.6
						c1.2,0.3,2.1,1.1,2.6,2.3c0.5,1.1,0.7,2.2,0.8,3.4c0.3,2.9,0.5,5.8,0.7,8.8c0.2,3.2,0.4,6.4,0.6,9.6c0.1,0.8-0.1,1.6-0.5,2.4
						c-0.6,1.2-2.1,1.2-2.8,0.2c-0.5-0.7-0.8-1.6-0.9-2.5c-0.5-4.5-0.9-8.9-1.4-13.3c-0.2-1.8-0.4-3.6-0.7-5.4
						c-0.3-1.6-0.2-1.4-1.7-1.6c-0.5-0.1-1.1-0.2-1.6-0.3c-2.1-0.5-3.4-1.8-3.9-3.9c-0.3-1.1-0.4-2.2-0.5-3.3
						C290.2,269.6,290,267.1,289.8,264.7z"/>
					<path class="st4" d="M354.6,249.8c-0.2,0.4-0.5,0.8-0.8,1.3c-0.5,0.8-1.1,1.5-1.6,2.2c-0.2-0.1-0.5-0.2-0.7-0.2
						c-2-0.8-4-1.7-5.9-2.5c-2.7-1.2-5.4-2.4-8.2-3.3c-0.3-0.1-0.6-0.2-0.9-0.4c0.5-0.5,1.1-1,1.6-1.5c0.5-0.5,1-1,1.4-1.6
						c4.6,1.4,9.2,3.1,13.6,5.2C353.6,249.1,354.1,249.5,354.6,249.8z"/>
					<path class="st4" d="M258.4,245.7c-0.6,0.7-1.2,1.4-1.9,2c-2.5,2.4-5,4.8-7.6,7.1c-0.3,0.3-0.7,0.6-1.1,0.9c-0.9-1-1.7-2-2.5-3
						c1.9-1.9,3.9-3.7,5.8-5.6c1.6-1.6,3.2-3.3,5-4.8c0,0,0,0,0,0c0.1,0.1,0.2,0.3,0.2,0.4C257.1,243.7,257.7,244.7,258.4,245.7z"/>
					<path class="st4" d="M293.6,286.7c-1.1,0-2-0.9-2-2c0-1.1,0.9-2,2-2c1.1,0,2,0.9,2,2C295.6,285.8,294.7,286.7,293.6,286.7z"/>
				</g>
			</g>
			<g>
				<path class="st64" d="M333,228.2c0,0.5,0,1,0,1.5c-0.1,3.8-1,7.3-2.4,10.4c-0.6,1.3-1.4,2.6-2.3,3.8c-2,2.7-4.5,5-7.7,6.9
					c-5.1,3.1-10.6,5-16.4,5.8c-2.6,0.4-5.3,0.5-7.9,0.6c-2-0.1-3.9,0-5.9-0.2c-2.9-0.2-5.8-0.7-8.5-1.6c-2.9-0.9-5.5-2.6-7.9-4.5
					c-3.4-2.8-6-6.1-7.8-10c-0.5-1.1-1-2.3-1.3-3.6c-0.5-1.6-0.8-3.3-0.9-5c-0.2-2.4-0.2-4.7,0.1-7.1c0.1-1.2,0.3-2.4,0.6-3.6
					c0.5-2.3,1.3-4.4,2.3-6.5v0c0.7-1.4,1.6-2.8,2.5-4.1c5.4-7.4,12.7-11.9,21.7-13.5c3.1-0.6,6.2-0.9,9.3-0.8
					c6.1,0.2,11.9,1.6,17.3,4.7c6.6,3.8,11,9.5,13.6,16.6C332.3,221.3,333,224.7,333,228.2z"/>
				<path d="M333,229.7c-0.2,5.5-1.8,10.2-4.7,14.2c0,0,0,0,0,0c-1.1-4-2.3-8.1-4.1-11.9c-0.9-1.8-1.8-3.6-2.8-5.3
					c-1-1.7-2.3-3.2-3.7-4.7c-3.1-3.2-6.2-6.3-9.3-9.5c-1.8-1.9-3.5-3.8-5.2-5.8c-1.8-2.2-3.3-4.7-4.3-7.4c0-0.1-0.1-0.2-0.2-0.4
					c-0.1,0.1-0.2,0.1-0.2,0.2c-1.9,2.5-4.2,4.5-6.8,6.3c-3.2,2.3-6.4,4.6-9.5,7c-1.1,0.8-2.1,1.7-3.2,2.6c-4.6,3.8-7.8,8.5-10,14
					c-1.1,2.8-2,5.7-2.6,8.7c-0.2,1.1-0.3,2.2-0.4,3.3c-0.5-1.1-1-2.3-1.3-3.6c-0.5-1.6-0.8-3.3-0.9-5c-0.2-2.4-0.2-4.7,0.1-7.1
					c0.5-5.2,2.3-9.9,5.4-14.1c5.4-7.4,12.7-11.9,21.7-13.5c3.1-0.6,6.2-0.9,9.3-0.8c6.1,0.2,11.9,1.6,17.3,4.7
					c6.6,3.8,11,9.5,13.6,16.6C332.5,221.8,333.1,225.7,333,229.7z"/>
				<g>
					<path d="M310.8,228c0,1.7-0.4,3-1.3,4.1c-1.7,2.1-4.6,1.9-6.1-0.3c-0.6-0.9-0.8-1.9-1-3c-0.3-1.4,0-2.8,0.3-4.2
						c0.4-1.5,1.3-2.6,2.8-2.9c1.7-0.3,3,0.4,3.9,1.7C310.4,225,310.7,226.6,310.8,228z"/>
					<path d="M287.9,228.8c0,1.1-0.1,2.2-0.7,3.2c-0.7,1.2-1.8,1.9-3.3,1.8c-0.8-0.1-1.4-0.3-1.9-0.9c-0.4-0.4-0.8-0.9-1.1-1.5
						c-0.7-1.4-1-2.8-1-4.4c0-1.2,0.5-2.3,1.3-3.2c0.9-1.2,2.6-1.4,4-0.7c0.9,0.4,1.5,1.2,2,2C287.7,226.3,287.9,227.6,287.9,228.8z
						"/>
				</g>
				<g>
					<path d="M304.6,241.6c0,0.5,0,1-0.2,1.5c-0.1,0.3-0.2,0.5-0.3,0.8c-0.6,1.4-1.4,2.6-2.3,3.5c-1.3,1.4-3,2.3-5.2,2.7
						c-0.4,0.1-0.8,0.1-1.3,0.1c-2.8-0.3-5.3-1.1-7.2-2.8c-1.1-0.9-2-2.1-2.7-3.6l0,0c-0.2-0.4-0.3-0.7-0.5-1.1
						c-0.3-0.7-0.1-1.2,0.6-1.5c0.4-0.1,0.8-0.2,1.2-0.3c0.8-0.1,1.6-0.1,2.4-0.1c2.1,0,4.1,0,6.2-0.1c2.1-0.1,4.2-0.2,6.2-0.3
						c0.5,0,1-0.1,1.5-0.1C304.1,240.2,304.6,240.7,304.6,241.6z"/>
					<path class="st36" d="M304.6,241.6c0,0.5,0,1-0.2,1.5c-0.1,0.3-0.2,0.5-0.3,0.8h-18.6l0,0c-0.2-0.4-0.3-0.7-0.5-1.1
						c-0.3-0.7-0.1-1.2,0.6-1.5c0.4-0.1,0.8-0.2,1.2-0.3c0.8-0.1,1.6-0.1,2.4-0.1c2.1,0,4.1,0,6.2-0.1c2.1-0.1,4.2-0.2,6.2-0.3
						c0.5,0,1-0.1,1.5-0.1C304.1,240.2,304.6,240.7,304.6,241.6z"/>
					<path class="st8" d="M301.8,247.4c-1.3,1.4-3,2.3-5.2,2.7c-0.4,0.1-0.8,0.1-1.3,0.1c-2.8-0.3-5.3-1.1-7.2-2.8
						c2-0.4,4.4-0.6,7-0.6C297.6,246.8,299.9,247,301.8,247.4z"/>
				</g>
			</g>
			<path class="st34" d="M264,144c0.2-0.4,0.3-0.8,0.4-1.2c2.3-6.9,6.8-12,13.1-15.6c3-1.7,6.3-2.7,9.8-2.6c1.8,0,3.5,0.4,5.2,1.2
				c0.9,0.4,1.7,1,2.7,1.6c0.3-0.1,0.8-0.3,1.3-0.5c3.2-1.2,6.4-1.4,9.6-0.4c3.3,1,5.5,3.3,7.2,6.2c0.8,1.3,1.1,2.8,1.4,4.3
				c0,0.2,0.1,0.3,0.1,0.5c0.2-0.1,0.4-0.2,0.6-0.3c1.7-1,3.5-1.9,5.5-2.4c8.2-2.2,17.8,0.5,22.5,10c2.1,4.3,2.5,8.8,1.9,13.5
				c-0.6,4.6-2.3,8.8-5.4,12.4c-0.9,1.1-1.8,2.3-2.6,3.4c-1.5,2-2.4,4.2-2.7,6.7c-0.3,2.5-0.6,4.9-0.9,7.4c-0.5,5.3-0.9,10.6-1.3,16
				c-0.1,1.7-0.1,3.3-0.2,5c0,0.5-0.1,1.1-0.3,1.6c-0.8,1.5-2.7,2.7-4.6,1.9c-0.2-0.1-0.4-0.2-0.6-0.3c-4.3-2.4-9-3.6-13.8-3.8
				c-5.3-0.3-10.6,0-15.9,0.8c-4.2,0.7-8.3,2-12.3,3.5c-2.4,1-4.9,1.9-7.2,3.2c-2.4,1.3-4.7,2.7-6.9,4.4c-1.8,1.4-3.9,2.5-5.9,3.6
				c-0.8,0.4-1.5,0.3-2-0.5c-0.6-0.9-1.1-1.8-1.4-2.7c-1.7-4.2-2.9-8.6-3.8-13c-0.8-3.6-1.5-7.2-2.2-10.8c-0.4-2.1-0.8-4.3-1.1-6.5
				c-0.3-2.2-1.1-4-2.7-5.5c-2.1-2-3.9-4.3-5.4-6.7c-1.8-2.8-3.2-5.7-4.1-8.9c-0.8-2.8-1.1-5.7-0.9-8.6c0.5-5.3,3-9.4,7.1-12.7
				c3.5-2.8,7.6-4.1,12.1-4.2C261.6,144,262.8,144,264,144z"/>
		</g>
		<g>
			<ellipse class="st4" cx="356" cy="231.4" rx="22" ry="3.7"/>
			<g>
				<g>
					<g>
						<g>
							<path class="st96" d="M370.7,210.7c-1,3.9-7,7-15.9,7s-15.1-3.4-16.2-7c-1-3.3,7.2-11.6,16.2-11.6S371.5,207.3,370.7,210.7z"
								/>
						</g>
						<g>
							<path class="st21" d="M370.7,210.7c-1.9,6.8-2.6,12-4.7,18c-7.6,3.6-19.8,2.5-21.7-0.7c-2.9-7.7-3.7-11.3-5.6-17.3H370.7z"/>
							<g>
								<polygon class="st100" points="347.5,225.8 342.9,210.7 343.8,210.7 								"/>
								<polygon class="st100" points="351,225.8 348.6,210.7 349.4,210.7 								"/>
								<polygon class="st100" points="355.1,210.7 354.7,225.9 354.3,210.7 								"/>
								<polygon class="st100" points="366.8,210.7 362.2,225.8 365.9,210.7 								"/>
								<polygon class="st100" points="360.8,210.7 358.5,225.7 360,210.7 								"/>
							</g>
						</g>
					</g>
				</g>
			</g>
		</g>
	</g>
</g>
</svg>
