<svg xmlns="http://www.w3.org/2000/svg" style="display: none;"><symbol id="calendar" viewBox="0 -12 468 468"><title>calendar</title><path d="m415.386719 39.179688h-41.386719v-31.179688c0-4.417969-3.582031-8-8-8s-8 3.582031-8 8v31.179688h-243v-31.179688c0-4.417969-3.582031-8-8-8s-8 3.582031-8 8v31.179688h-46.386719c-28.886719 0-52.613281 23.949218-52.613281 52.835937v299.953125c0 28.886719 23.726562 52.210938 52.613281 52.210938h362.773438c28.886719 0 52.613281-23.324219 52.613281-52.210938v-299.953125c0-28.886719-23.726562-52.835937-52.613281-52.835937zm36.613281 352.789062c0 20.0625-16.546875 36.210938-36.613281 36.210938h-362.773438c-20.066406 0-36.613281-16.148438-36.613281-36.210938v-243.789062h436zm-436-259.789062v-40.164063c0-20.066406 16.546875-36.835937 36.613281-36.835937h46.386719v32.074218c0 4.417969 3.582031 8 8 8s8-3.582031 8-8v-32.074218h243v32.074218c0 4.417969 3.582031 8 8 8s8-3.582031 8-8v-32.074218h41.386719c20.066406 0 36.613281 16.769531 36.613281 36.835937v40.164063zm0 0"/><path d="m234 382.144531c52.292969 0 94.6875-42.390625 94.6875-94.683593 0-52.292969-42.394531-94.6875-94.6875-94.6875s-94.6875 42.394531-94.6875 94.6875c.058594 52.269531 42.417969 94.625 94.6875 94.683593zm0-173.367187c43.457031 0 78.6875 35.230468 78.6875 78.6875 0 43.457031-35.230469 78.6875-78.6875 78.6875s-78.6875-35.230469-78.6875-78.6875c.050781-43.4375 35.25-78.636719 78.6875-78.6875zm0 0"/><path d="m229.179688 303.179688h38.554687c4.417969 0 8-3.582032 8-8 0-4.417969-3.582031-8-8-8h-30.734375v-43.09375c0-4.417969-3.582031-8-8-8s-8 3.582031-8 8v50.601562c0 4.421875 3.761719 8.492188 8.179688 8.492188zm0 0"/><path d="m234 410.332031c67.859375 0 122.871094-55.011719 122.871094-122.871093 0-67.859376-55.011719-122.871094-122.871094-122.871094s-122.871094 55.011718-122.871094 122.871094c.074219 67.828124 55.042969 122.792968 122.871094 122.871093zm0-229.742187c59.023438 0 106.871094 47.847656 106.871094 106.871094 0 59.023437-47.847656 106.871093-106.871094 106.871093s-106.871094-47.847656-106.871094-106.871093c.066406-58.996094 47.875-106.804688 106.871094-106.871094zm0 0"/></symbol><symbol id="document" viewBox="-87 0 512 512.001"><title>document</title><path d="m337.039062 100.152344c-.003906-.109375-.007812-.21875-.015624-.328125-.03125-.433594-.074219-.859375-.160157-1.28125 0 0 0 0 0-.003907-.085937-.421874-.207031-.839843-.34375-1.246093-.035156-.101563-.070312-.203125-.109375-.304688-.144531-.386719-.308594-.765625-.496094-1.132812-.011718-.019531-.019531-.039063-.03125-.058594-.203124-.382813-.4375-.746094-.691406-1.101563-.0625-.089843-.128906-.175781-.195312-.265624-.269532-.351563-.550782-.691407-.867188-1.007813l-90.492187-90.492187c-.316407-.316407-.65625-.597657-1.007813-.867188-.089844-.066406-.179687-.136719-.269531-.199219-.355469-.253906-.714844-.488281-1.09375-.6875-.027344-.015625-.054687-.023437-.078125-.039062-.359375-.1875-.734375-.347657-1.113281-.492188-.105469-.039062-.207031-.074219-.316407-.109375-.40625-.136718-.816406-.257812-1.242187-.34375-.003906 0-.007813 0-.007813 0-.417968-.082031-.84375-.128906-1.273437-.160156-.109375-.0039062-.21875-.0117188-.328125-.015625-.113281-.0039062-.226562-.015625-.339844-.015625h-226.566406c-5.523438 0-10 4.476562-10 10v428.023438c0 5.523437 4.476562 10 10 10h150.554688v53.976562c0 3.636719 1.976562 6.988281 5.160156 8.75 3.1875 1.761719 7.074218 1.65625 10.15625-.277344l38.085937-23.894531 38.085938 23.894531c1.621093 1.015625 3.46875 1.527344 5.316406 1.527344 1.664063 0 3.332031-.414062 4.839844-1.246094 3.183593-1.761718 5.160156-5.113281 5.160156-8.753906v-53.976562h59.695313c5.523437 0 10-4.476563 10-10v-337.53125c0-.113282-.011719-.226563-.015626-.339844zm-90.472656-66.007813 56.347656 56.347657h-56.347656zm-90.945312 274.726563c-.703125-1.910156-1.847656-5.03125-1.875-6.308594.78125-.96875 3.492187-2.683594 5.152344-3.730469 3.5625-2.25 7.601562-4.804687 10.53125-8.796875 2.957031-4.035156 4.160156-8.695312 5.222656-12.804687.464844-1.796875 1.214844-4.699219 1.855468-5.796875.351563-.074219 1.089844-.179688 2.476563-.179688 1.113281 0 2.359375.0625 3.679687.128906 1.515626.074219 3.078126.152344 4.710938.152344 3.601562 0 6.507812-.40625 9.144531-1.285156 4.605469-1.53125 8.289063-4.496094 11.539063-7.113281 1.796875-1.445313 4.804687-3.867188 5.851562-4.015625 1.144532.148437 4.148438 2.570312 5.945313 4.015625 3.25 2.617187 6.9375 5.582031 11.542969 7.113281 2.636718.878906 5.539062 1.285156 9.144531 1.285156 1.628906 0 3.195312-.078125 4.707031-.152344 1.320312-.066406 2.566406-.128906 3.683594-.128906 1.386718 0 2.121094.101563 2.476562.179688.640625 1.097656 1.390625 4 1.851563 5.796875 1.0625 4.109375 2.269531 8.769531 5.226562 12.804687 2.925781 3.992188 6.964844 6.542969 10.53125 8.796875 1.65625 1.050781 4.367188 2.761719 5.148438 3.730469-.027344 1.277344-1.171875 4.398438-1.871094 6.308594-1.488281 4.050781-3.171875 8.644531-3.171875 13.734375 0 5.089843 1.683594 9.683593 3.167969 13.738281.703125 1.910156 1.847656 5.03125 1.875 6.308594-.78125.96875-3.492188 2.679687-5.148438 3.730468-3.566406 2.25-7.605469 4.804688-10.53125 8.796876-2.957031 4.035156-4.164062 8.695312-5.226562 12.804687-.460938 1.792969-1.214844 4.699219-1.851563 5.796875-.355468.074219-1.089844.179688-2.476562.179688-1.117188 0-2.363282-.0625-3.683594-.128907-1.511719-.074219-3.078125-.152343-4.707031-.152343-3.605469 0-6.507813.40625-9.144531 1.285156-4.605469 1.53125-8.292969 4.5-11.542969 7.113281-1.769531 1.429687-4.722657 3.800781-5.898438 4.011719-1.175781-.210938-4.125-2.582032-5.894531-4.011719-3.253906-2.613281-6.9375-5.582031-11.542969-7.113281-2.636719-.878906-5.542969-1.285156-9.144531-1.285156-1.628906 0-3.195312.078124-4.710938.152343-1.316406.066407-2.5625.128907-3.679687.128907-1.386719 0-2.121094-.105469-2.476563-.179688-.640624-1.097656-1.390624-4-1.855468-5.796875-1.058594-4.109375-2.265625-8.769531-5.222656-12.804687-2.925782-3.992188-6.964844-6.546876-10.53125-8.796876-1.65625-1.046874-4.367188-2.761718-5.148438-3.730468.027344-1.273438 1.171875-4.398438 1.871094-6.308594 1.488281-4.050781 3.171875-8.644531 3.171875-13.734375 0-5.09375-1.6875-9.6875-3.171875-13.738281zm91.738281 175.050781-28.085937-17.621094c-3.25-2.035156-7.382813-2.035156-10.632813 0l-28.085937 17.621094v-89.992187c1.0625-.03125 2.105468-.070313 3.117187-.121094 1.324219-.070313 2.574219-.132813 3.703125-.132813 1.773438 0 2.53125.164063 2.824219.261719 1.191406.398438 3.480469 2.242188 5.320312 3.722656 4.667969 3.757813 10.476563 8.433594 18.4375 8.433594 7.960938 0 13.769531-4.675781 18.4375-8.433594 1.839844-1.480468 4.128907-3.324218 5.316407-3.71875.296874-.097656 1.054687-.261718 2.828124-.261718 1.128907 0 2.378907.0625 3.703126.128906 1.011718.050781 2.054687.09375 3.113281.121094v89.992187zm20-55.898437v-42.152344c2.972656-4.039063 4.214844-8.820313 5.265625-12.882813.550781-2.132812 1.304688-5.050781 1.992188-5.984375.683593-.9375 3.226562-2.542968 5.082031-3.714844 4.921875-3.109374 11.046875-6.980468 13.480469-14.300781 2.40625-7.222656-.097657-14.046875-2.109376-19.53125-.914062-2.488281-1.949218-5.3125-1.949218-6.851562 0-1.539063 1.035156-4.359375 1.949218-6.847657 2.011719-5.484374 4.515626-12.3125 2.109376-19.535156-2.433594-7.316406-8.558594-11.1875-13.480469-14.296875-1.855469-1.171875-4.398438-2.78125-5.082031-3.710937-.6875-.9375-1.441407-3.855469-1.992188-5.988282-1.4375-5.566406-3.226562-12.496093-9.351562-16.988281-4.875-3.570312-10.519532-3.984375-14.34375-3.984375-1.617188 0-3.179688.078125-4.6875.15625-1.324219.066406-2.574219.128906-3.699219.128906-1.777344 0-2.535157-.164062-2.828125-.261718-1.1875-.394532-3.476563-2.238282-5.316406-3.722656-4.671876-3.753907-10.480469-8.429688-18.441407-8.429688-7.957031 0-13.769531 4.675781-18.4375 8.429688-1.839843 1.480468-4.128906 3.328124-5.316406 3.722656-.292969.097656-1.054687.261718-2.828125.261718-1.125 0-2.378906-.0625-3.703125-.132812-1.507813-.074219-3.066406-.152344-4.6875-.152344-3.820313 0-9.464844.414063-14.335937 3.984375-6.128907 4.492188-7.921876 11.421875-9.359376 16.988281-.550781 2.132813-1.304687 5.050782-1.988281 5.984376-.6875.933593-3.230469 2.542968-5.085937 3.714843-4.921875 3.109375-11.042969 6.980469-13.480469 14.296875-2.40625 7.226563.097656 14.050782 2.109375 19.535156.914062 2.488282 1.949219 5.308594 1.949219 6.847657 0 1.539062-1.035157 4.363281-1.949219 6.851562-2.011719 5.484375-4.515625 12.308594-2.109375 19.535157 2.4375 7.316406 8.5625 11.1875 13.480469 14.296874 1.859375 1.171876 4.398437 2.78125 5.085937 3.714844.683594.933594 1.4375 3.851563 1.988281 5.984375 1.050782 4.0625 2.296876 8.847657 5.269532 12.882813v42.152344h-140.558594v-408.023438h206.566406v80.492188c0 5.523437 4.476563 10 10 10h80.488282v317.53125zm0 0"/><path d="m58.863281 110.492188h128.835938c5.519531 0 10-4.476563 10-10 0-5.523438-4.480469-10-10-10h-128.835938c-5.523437 0-10 4.476562-10 10 0 5.523437 4.480469 10 10 10zm0 0"/><path d="m279.308594 140.96875h-220.445313c-5.523437 0-10 4.476562-10 10s4.476563 10 10 10h220.445313c5.523437 0 10-4.476562 10-10s-4.476563-10-10-10zm0 0"/><path d="m239.308594 191.445312h-180.445313c-5.523437 0-10 4.480469-10 10 0 5.523438 4.476563 10 10 10h180.445313c5.523437 0 10-4.476562 10-10 0-5.519531-4.476563-10-10-10zm0 0"/><path d="m279.308594 191.445312c-5.507813 0-10 4.492188-10 10 0 5.507813 4.492187 10 10 10 5.511718 0 10-4.492187 10-10 0-5.507812-4.488282-10-10-10zm0 0"/></symbol><symbol id="car" viewBox="-80 0 496 496"><title>car</title><path d="m312 112h-88v-56c0-30.871094-25.128906-56-56-56s-56 25.128906-56 56v56h-88c-13.230469 0-24 10.769531-24 24v336c0 13.230469 10.769531 24 24 24h288c13.230469 0 24-10.769531 24-24v-336c0-13.230469-10.769531-24-24-24zm-184-56c0-22.054688 17.945312-40 40-40s40 17.945312 40 40v56h-80zm192 416c0 4.414062-3.585938 8-8 8h-288c-4.414062 0-8-3.585938-8-8v-336c0-4.414062 3.585938-8 8-8h288c4.414062 0 8 3.585938 8 8zm0 0"/><path d="m168 32c-13.230469 0-24 10.769531-24 24v16c0 4.425781 3.574219 8 8 8h32c4.425781 0 8-3.574219 8-8v-16c0-13.230469-10.769531-24-24-24zm8 32h-16v-8c0-4.414062 3.585938-8 8-8s8 3.585938 8 8zm0 0"/><path d="m120 320h96c4.425781 0 8-3.574219 8-8v-32c0-21.585938-12.296875-40.320312-30.230469-49.664062 8.628907-7.34375 14.230469-18.144532 14.230469-30.335938v-16c0-22.054688-17.945312-40-40-40s-40 17.945312-40 40v16c0 12.191406 5.601562 22.992188 14.230469 30.335938-17.933594 9.34375-30.230469 28.078124-30.230469 49.664062v32c0 4.425781 3.574219 8 8 8zm24-120v-16c0-13.230469 10.769531-24 24-24s24 10.769531 24 24v16c0 13.230469-10.769531 24-24 24s-24-10.769531-24-24zm-16 80c0-22.054688 17.945312-40 40-40s40 17.945312 40 40v24h-80zm0 0"/><path d="m296 336h-112c-4.425781 0-8 3.574219-8 8v112c0 4.425781 3.574219 8 8 8h112c4.425781 0 8-3.574219 8-8v-112c0-4.425781-3.574219-8-8-8zm-8 112h-96v-96h96zm0 0"/><path d="m232 440c.296875 0 .601562-.015625.902344-.054688 2.425781-.273437 4.585937-1.640624 5.875-3.707031l40-64-13.5625-8.484375-34.671875 55.476563-16.886719-16.886719-11.3125 11.3125 24 24c1.503906 1.511719 3.542969 2.34375 5.65625 2.34375zm0 0"/><path d="m32 448h128v16h-128zm0 0"/><path d="m32 416h128v16h-128zm0 0"/><path d="m32 384h128v16h-128zm0 0"/></symbol><symbol id="internet" viewBox="0 0 512.002 512.002"><title>internet</title><g> <g> <path d="M502.001,492.002h-44v-79c0-5.523-4.478-10-10-10c-5.522,0-10,4.477-10,10v79h-120v-190c0-5.523-4.478-10-10-10h-104 c-5.522,0-10,4.477-10,10v190h-120V266.001h3.848c2.652,0,5.195-1.054,7.071-2.929L256.001,91.991l171.081,171.081 c1.876,1.875,4.419,2.929,7.071,2.929h3.848v75c0,5.523,4.478,10,10,10c5.522,0,10-4.477,10-10v-75h44 c4.045,0,7.691-2.437,9.239-6.173c1.548-3.736,0.691-8.038-2.168-10.898l-246-246c-3.906-3.905-10.236-3.905-14.143,0l-94,94 c-3.905,3.905-3.905,10.237,0,14.142c3.906,3.906,10.238,3.906,14.143,0l86.929-86.929l221.857,221.858h-39.563L263.072,70.778 c-3.906-3.905-10.236-3.905-14.143,0L73.706,246.001H34.143l78.929-78.928c3.905-3.905,3.905-10.237,0-14.143 c-3.905-3.904-10.237-3.905-14.143,0l-96,96c-2.859,2.86-3.716,7.161-2.168,10.898c1.548,3.737,5.195,6.173,9.24,6.173h44v226h-44 c-5.522,0-10,4.477-10,10s4.478,10,10,10h54h140h104h140h54c5.522,0,10-4.477,10-10S507.523,492.002,502.001,492.002z M298.001,492.002h-84v-180h84V492.002z"/> </g> </g><g> <g> <path d="M406.001,292.002h-56c-5.522,0-10,4.477-10,10v100c0,5.523,4.478,10,10,10h56c5.522,0,10-4.477,10-10v-100 C416.001,296.479,411.523,292.002,406.001,292.002z M396.001,392.002h-36v-80h36V392.002z"/> </g> </g><g> <g> <path d="M162.001,292.002h-56c-5.522,0-10,4.477-10,10v100c0,5.523,4.478,10,10,10h56c5.522,0,10-4.477,10-10v-100 C172.001,296.479,167.523,292.002,162.001,292.002z M152.001,392.002h-36v-80h36V392.002z"/> </g> </g><g> <g> <path d="M256.001,164.322c-25.364,0-46,20.636-46,46s20.636,46,46,46c25.364,0,46-20.636,46-46S281.365,164.322,256.001,164.322z M256.001,236.322c-14.337,0-26-11.664-26-26s11.663-26,26-26c14.337,0,26,11.664,26,26S270.338,236.322,256.001,236.322z"/> </g> </g><g> <g> <path d="M244.07,394.932c-1.859-1.86-4.44-2.93-7.069-2.93c-2.63,0-5.21,1.07-7.07,2.93c-1.86,1.86-2.93,4.44-2.93,7.07 s1.069,5.21,2.93,7.07c1.861,1.86,4.44,2.93,7.07,2.93s5.21-1.07,7.069-2.93c1.86-1.86,2.931-4.44,2.931-7.07 S245.931,396.792,244.07,394.932z"/> </g> </g><g> <g> <path d="M140.07,125.932c-1.859-1.86-4.439-2.93-7.069-2.93s-5.21,1.07-7.07,2.93c-1.86,1.86-2.93,4.44-2.93,7.07 s1.069,5.21,2.93,7.07c1.861,1.86,4.44,2.93,7.07,2.93s5.21-1.07,7.069-2.93c1.86-1.86,2.931-4.44,2.931-7.07 S141.931,127.792,140.07,125.932z"/> </g> </g><g> <g> <path d="M455.07,367.261c-1.859-1.859-4.44-2.93-7.069-2.93c-2.63,0-5.21,1.07-7.07,2.93c-1.86,1.87-2.93,4.44-2.93,7.07 s1.069,5.21,2.93,7.08c1.86,1.86,4.44,2.92,7.07,2.92s5.21-1.06,7.069-2.92c1.86-1.87,2.931-4.44,2.931-7.08 C458.001,371.701,456.931,369.121,455.07,367.261z"/> </g> </g></symbol><symbol id="food" viewBox="0 0 496 496"><title>food</title><g> <g> <path d="M220,320c-19.848,0-36,16.152-36,36c0,19.848,16.152,36,36,36c19.848,0,36-16.152,36-36C256,336.152,239.848,320,220,320z M220,376c-11.024,0-20-8.968-20-20c0-11.032,8.976-20,20-20s20,8.968,20,20C240,367.032,231.024,376,220,376z"/> </g> </g><g> <g> <path d="M248,200c-13.232,0-24,10.768-24,24s10.768,24,24,24s24-10.768,24-24S261.232,200,248,200z M248,232c-4.408,0-8-3.592-8-8 s3.592-8,8-8s8,3.592,8,8S252.408,232,248,232z"/> </g> </g><g> <g> <path d="M376,328c-13.232,0-24,10.768-24,24s10.768,24,24,24s24-10.768,24-24S389.232,328,376,328z M376,360c-4.408,0-8-3.584-8-8 c0-4.416,3.592-8,8-8c4.408,0,8,3.584,8,8C384,356.416,380.408,360,376,360z"/> </g> </g><g> <g> <path d="M324,416c-13.232,0-24,10.768-24,24s10.768,24,24,24s24-10.768,24-24S337.232,416,324,416z M324,448c-4.408,0-8-3.584-8-8 c0-4.416,3.592-8,8-8c4.408,0,8,3.584,8,8C332,444.416,328.408,448,324,448z"/> </g> </g><g> <g> <path d="M76,184c-19.848,0-36,16.152-36,36s16.152,36,36,36s36-16.152,36-36C112,200.152,95.848,184,76,184z M76,240 c-11.024,0-20-8.976-20-20s8.976-20,20-20s20,8.976,20,20S87.024,240,76,240z"/> </g> </g><g> <g> <path d="M112,56c-13.232,0-24,10.768-24,24s10.768,24,24,24s24-10.768,24-24S125.232,56,112,56z M112,88c-4.408,0-8-3.592-8-8 s3.592-8,8-8s8,3.592,8,8S116.408,88,112,88z"/> </g> </g><g> <g> <path d="M240,48c-13.232,0-24,10.768-24,24s10.768,24,24,24s24-10.768,24-24S253.232,48,240,48z M240,80c-4.408,0-8-3.592-8-8 s3.592-8,8-8s8,3.592,8,8S244.408,80,240,80z"/> </g> </g><g> <g> <path d="M492.256,283.864l-1.984-9.504l-8.952,3.768c-2.952,1.24-6.088,1.872-9.32,1.872c-9.208,0-17.456-5.224-21.52-13.632 l-3.184-6.584l-6.84,2.584c-16.808,6.36-32.44-6.472-32.48-21.816l0.336-7.816l-6.224-1.592C391.44,228.432,384,218.912,384,208 c0-2.744,0.544-5.584,1.632-8.44l2.592-6.848l-6.592-3.184C373.224,185.464,368,177.208,368,168c0-2.488,0.48-5.056,1.464-7.864 l2.88-8.224l-8.44-2.168c-4.912-1.264-9.816-2.248-14.712-3.096C335.032,62.664,261.72,0,176,0C78.952,0,0,78.952,0,176 c0,85.664,62.568,158.92,146.464,173.16C160.4,432.376,232.888,496,320,496c97.048,0,176-78.952,176-176 C496,307.928,494.736,295.776,492.256,283.864z M144.496,332.568C70.576,317.752,16,252.28,16,176C16,87.776,87.776,16,176,16 c76.288,0,141.776,54.6,156.568,128.536C328.352,144.208,324.152,144,320,144c-26.208,0-51.072,5.8-73.44,16.112 C243.28,150.768,234.456,144,224,144c-13.232,0-24,10.768-24,24c0,6.608,2.8,12.608,7.256,16.984 C168.624,217.296,144,265.816,144,320C144,324.232,144.2,328.408,144.496,332.568z M231.944,167.712 c-3.96,2.296-7.824,4.72-11.576,7.312c-2.6-1.328-4.368-3.992-4.368-7.024c0-4.408,3.592-8,8-8 C228.312,160,231.784,163.44,231.944,167.712z M320,480c-88.224,0-160-71.776-160-160s71.776-160,160-160 c10.544,0,21.368,1.16,32.288,3.448c-0.192,1.528-0.288,3.04-0.288,4.552c0,13.104,6.288,25.016,16.768,32.448 c-0.512,2.52-0.768,5.048-0.768,7.552c0,16.152,9.72,30.472,24.272,36.672C394.592,264.528,411.52,280,432,280 c2.504,0,5.024-0.256,7.552-0.768C446.984,289.712,458.896,296,472,296c2.064,0,4.104-0.16,6.112-0.464 C479.368,303.656,480,311.848,480,320C480,408.224,408.224,480,320,480z"/> </g> </g><g> <g> <rect x="296" y="184" width="16" height="16"/> </g> </g><g> <g> <rect x="312" y="240" width="16" height="16"/> </g> </g><g> <g> <rect x="184" y="272" width="16" height="16"/> </g> </g><g> <g> <rect x="256" y="288" width="16" height="16"/> </g> </g><g> <g> <rect x="296" y="352" width="16" height="16"/> </g> </g><g> <g> <rect x="248" y="432" width="16" height="16"/> </g> </g><g> <g> <rect x="384" y="416" width="16" height="16"/> </g> </g><g> <g> <rect x="424" y="328" width="16" height="16"/> </g> </g><g> <g> <rect x="272" y="112" width="16" height="16"/> </g> </g><g> <g> <rect x="184" y="96" width="16" height="16"/> </g> </g><g> <g> <rect x="168" y="32" width="16" height="16"/> </g> </g><g> <g> <rect x="40" y="128" width="16" height="16"/> </g> </g><g> <g> <rect x="128" y="144" width="16" height="16"/> </g> </g><g> <g> <rect x="144" y="208" width="16" height="16"/> </g> </g><g> <g> <rect x="104" y="280" width="16" height="16"/> </g> </g><g> <g> <rect x="360" y="280" width="16" height="16"/> </g> </g></symbol><symbol id="sweet" viewBox="0 0 512 512"><title>sweet</title><path d="m337.320312 156.855469c0-6.65625.445313-13.207031 1.292969-19.628907-30.492187-5.789062-56.945312-22.988281-74.757812-46.980468-104.566407 28.132812-181.539063 123.582031-181.539063 237.039062 0 49.402344 14.605469 95.386719 39.714844 133.898438 38.511719 25.109375 84.496094 39.714844 133.898438 39.714844 118.601562 0 217.5625-84.109376 240.476562-195.933594-3.5.246094-7.035156.378906-10.601562.378906-82.003907 0-148.484376-66.480469-148.484376-148.488281zm0 0" fill="#b25029"/><path d="m175.730469 436.332031c-1.492188 0-3.003907-.320312-4.445313-1l-.472656-.226562c-5.207031-2.488281-7.410156-8.726563-4.921875-13.933594 2.492187-5.207031 8.730469-7.40625 13.933594-4.917969l.367187.171875c5.222656 2.460938 7.460938 8.6875 5 13.90625-1.78125 3.78125-5.539062 6-9.460937 6zm0 0"/><path d="m144.917969 418.035156c-2.140625 0-4.296875-.65625-6.15625-2.015625-29.371094-21.460937-52.289063-50.472656-66.28125-83.898437-2.226563-5.324219.28125-11.445313 5.605469-13.671875 5.324218-2.230469 11.445312.277343 13.671874 5.601562 12.519532 29.914063 33.039063 55.882813 59.332032 75.097657 4.660156 3.40625 5.675781 9.941406 2.273437 14.601562-2.046875 2.796875-5.222656 4.285156-8.445312 4.285156zm0 0"/><path d="m255.929688 511.347656c-68.359376 0-132.628907-26.621094-180.96875-74.960937-48.339844-48.335938-74.960938-112.609375-74.960938-180.96875 0-65.507813 24.730469-127.828125 69.640625-175.480469 44.710937-47.4375 105.058594-75.820312 169.933594-79.9179688 2.980469-.1875002 5.921875.9179688 8.042969 3.0351568 2.121093 2.121093 3.230468 5.046874 3.042968 8.039062-.144531 2.347656-.21875 4.660156-.21875 6.875 0 53.238281 37.902344 99.078125 90.121094 108.992188 5.445312 1.03125 9.136719 6.136718 8.410156 11.632812-.800781 6.050781-1.203125 12.195312-1.203125 18.261719 0 76.113281 61.921875 138.039062 138.035157 138.039062 3.207031 0 6.527343-.121093 9.871093-.355469 3.253907-.21875 6.4375 1.082032 8.589844 3.539063 2.15625 2.457031 3.035156 5.78125 2.378906 8.984375-11.660156 56.890625-42.894531 108.691406-87.945312 145.863281-45.664063 37.675781-103.46875 58.421875-162.769531 58.421875zm-26.328126-489.484375c-117.917968 13.144531-208.703124 113.621094-208.703124 233.554688 0 129.597656 105.433593 235.03125 235.03125 235.03125 106.6875 0 200.191406-72.703125 227.214843-174.679688-86.417969-1.421875-156.273437-72.164062-156.273437-158.914062 0-3.816407.140625-7.660157.414062-11.5-55.9375-14.90625-95.972656-65.109375-97.683594-123.492188zm0 0"/><g fill="#772800"><path d="m192.917969 165.273438c0 13.695312-11.101563 24.800781-24.800781 24.800781-13.695313 0-24.800782-11.105469-24.800782-24.800781 0-13.699219 11.105469-24.800782 24.800782-24.800782 13.699218 0 24.800781 11.101563 24.800781 24.800782zm0 0"/><path d="m206.988281 312.859375c0 13.695313-11.105469 24.800781-24.800781 24.800781-13.699219 0-24.800781-11.105468-24.800781-24.800781s11.101562-24.800781 24.800781-24.800781c13.695312 0 24.800781 11.105468 24.800781 24.800781zm0 0"/><path d="m319.992188 255.675781c0 13.695313-11.105469 24.800781-24.800782 24.800781-13.699218 0-24.800781-11.105468-24.800781-24.800781 0-13.699219 11.101563-24.800781 24.800781-24.800781 13.695313 0 24.800782 11.101562 24.800782 24.800781zm0 0"/><path d="m360.851562 387.160156c0 19.621094-15.902343 35.527344-35.523437 35.527344s-35.527344-15.90625-35.527344-35.527344c0-19.617187 15.90625-35.523437 35.527344-35.523437s35.523437 15.90625 35.523437 35.523437zm0 0"/></g><path d="m168.117188 200.519531c-19.4375 0-35.25-15.8125-35.25-35.246093 0-19.4375 15.816406-35.253907 35.25-35.253907 19.4375 0 35.25 15.816407 35.25 35.253907 0 19.433593-15.8125 35.246093-35.25 35.246093zm0-49.601562c-7.914063 0-14.351563 6.441406-14.351563 14.355469 0 7.914062 6.4375 14.351562 14.351563 14.351562 7.914062 0 14.351562-6.441406 14.351562-14.351562 0-7.914063-6.4375-14.355469-14.351562-14.355469zm0 0"/><path d="m182.183594 348.109375c-19.433594 0-35.246094-15.8125-35.246094-35.25s15.8125-35.25 35.246094-35.25c19.4375 0 35.25 15.8125 35.25 35.25.003906 19.4375-15.8125 35.25-35.25 35.25zm0-49.601563c-7.910156 0-14.351563 6.4375-14.351563 14.351563s6.441407 14.351563 14.351563 14.351563c7.914062 0 14.351562-6.4375 14.351562-14.351563.003906-7.914063-6.4375-14.351563-14.351562-14.351563zm0 0"/><path d="m295.191406 290.925781c-19.4375 0-35.25-15.816406-35.25-35.25 0-19.4375 15.8125-35.25 35.25-35.25s35.25 15.8125 35.25 35.25c0 19.433594-15.8125 35.25-35.25 35.25zm0-49.601562c-7.914062 0-14.351562 6.4375-14.351562 14.351562 0 7.910157 6.4375 14.351563 14.351562 14.351563 7.914063 0 14.351563-6.441406 14.351563-14.351563 0-7.914062-6.4375-14.351562-14.351563-14.351562zm0 0"/><path d="m501.550781 64.6875c0 15.328125-12.425781 27.753906-27.753906 27.753906s-27.757813-12.425781-27.757813-27.753906c0-15.332031 12.429688-27.757812 27.757813-27.757812s27.753906 12.425781 27.753906 27.757812zm0 0" fill="#772800"/><path d="m473.796875 102.890625c-21.066406 0-38.203125-17.140625-38.203125-38.203125 0-21.066406 17.136719-38.207031 38.203125-38.207031s38.203125 17.140625 38.203125 38.207031c0 21.0625-17.136719 38.203125-38.203125 38.203125zm0-55.507813c-9.542969 0-17.308594 7.761719-17.308594 17.304688s7.765625 17.304688 17.308594 17.304688 17.304687-7.765626 17.304687-17.304688c0-9.542969-7.761718-17.304688-17.304687-17.304688zm0 0"/><path d="m354.773438 66.265625c0 11.539063-9.355469 20.898437-20.898438 20.898437-11.539062 0-20.898438-9.359374-20.898438-20.898437 0-11.542969 9.359376-20.898437 20.898438-20.898437 11.542969 0 20.898438 9.355468 20.898438 20.898437zm0 0" fill="#772800"/><path d="m333.875 97.609375c-17.285156 0-31.34375-14.058594-31.34375-31.34375s14.058594-31.347656 31.34375-31.347656 31.347656 14.0625 31.347656 31.347656c0 17.28125-14.0625 31.34375-31.347656 31.34375zm0-41.792969c-5.761719 0-10.449219 4.6875-10.449219 10.449219s4.6875 10.445313 10.449219 10.445313 10.449219-4.683594 10.449219-10.445313-4.6875-10.449219-10.449219-10.449219zm0 0"/><path d="m461.84375 200.972656c0 13.847656-11.226562 25.078125-25.078125 25.078125-13.847656 0-25.074219-11.230469-25.074219-25.078125 0-13.851562 11.226563-25.078125 25.074219-25.078125 13.851563 0 25.078125 11.226563 25.078125 25.078125zm0 0" fill="#772800"/><path d="m436.765625 236.496094c-19.589844 0-35.523437-15.9375-35.523437-35.523438 0-19.589844 15.933593-35.527344 35.523437-35.527344s35.527344 15.9375 35.527344 35.527344c0 19.585938-15.9375 35.523438-35.527344 35.523438zm0-50.152344c-8.066406 0-14.625 6.5625-14.625 14.628906s6.558594 14.625 14.625 14.625 14.628906-6.558594 14.628906-14.625-6.5625-14.628906-14.628906-14.628906zm0 0"/><path d="m325.328125 433.136719c-25.351563 0-45.976563-20.625-45.976563-45.976563 0-25.347656 20.625-45.972656 45.976563-45.972656s45.972656 20.625 45.972656 45.972656c0 25.351563-20.625 45.976563-45.972656 45.976563zm0-71.050781c-13.828125 0-25.078125 11.25-25.078125 25.074218 0 13.828125 11.25 25.078125 25.078125 25.078125s25.078125-11.25 25.078125-25.078125c0-13.824218-11.25-25.074218-25.078125-25.074218zm0 0"/></symbol><symbol id="contact" viewBox="0 0 511.874 511.874"><title>contact</title><path d="M490.114,12.813H132.568c-12.012,0.014-21.746,9.748-21.76,21.76v98.62l-16.35-24.525 c-7.484-11.289-22.535-14.676-34.133-7.68l-33.638,20.224c-11.016,6.464-19.097,16.946-22.545,29.244 c-12.271,44.681-3.166,121.66,109.824,234.667C203.821,474.885,270.816,499.06,316.99,499.06 c10.69,0.049,21.339-1.34,31.659-4.13c12.293-3.448,22.775-11.518,29.252-22.519l20.198-33.673 c6.968-11.589,3.584-26.609-7.68-34.091l-80.546-53.692c-11.049-7.308-25.859-4.905-34.031,5.521l-23.45,30.148 c-2.451,3.226-6.897,4.166-10.445,2.21l-4.463-2.458c-14.686-8.004-32.964-17.971-69.879-54.886 c-3.994-3.994-7.612-7.731-11.008-11.307h333.517c11.982,0.009,21.713-9.676,21.76-21.658V34.573 C511.86,22.561,502.126,12.827,490.114,12.813z M229.318,401.362l4.335,2.381c10.897,6.093,24.614,3.266,32.213-6.639 l23.45-30.148c2.666-3.396,7.49-4.179,11.093-1.801l80.546,53.692c3.659,2.439,4.759,7.321,2.5,11.093l-20.198,33.673 c-4.218,7.233-11.071,12.553-19.123,14.848c-40.337,11.093-110.933,1.707-218.078-105.446S9.56,195.273,20.627,154.97 c2.293-8.051,7.61-14.903,14.839-19.123l33.673-20.207c3.773-2.254,8.652-1.155,11.093,2.5l53.717,80.546 c2.382,3.602,1.599,8.43-1.801,11.093l-30.157,23.458c-9.903,7.597-12.731,21.311-6.639,32.205l2.389,4.335 c8.533,15.65,19.14,35.123,57.805,73.779C194.212,382.213,213.677,392.828,229.318,401.362z M494.808,298.526 c-0.028,2.567-2.127,4.627-4.693,4.608H141.203c-11.083-12.674-20.64-26.604-28.476-41.506l-2.458-4.48 c-1.96-3.54-1.022-7.982,2.202-10.428l30.157-23.458c10.43-8.17,12.833-22.982,5.521-34.031l-20.275-30.43V34.573 c-0.014-1.249,0.476-2.451,1.359-3.334c0.883-0.883,2.085-1.373,3.334-1.359h357.547c1.249-0.014,2.451,0.476,3.334,1.359 c0.883,0.883,1.373,2.085,1.359,3.334V298.526z"/><path d="M460.725,52.323l-142.618,108.16c-4.035,2.932-9.499,2.932-13.534,0L162.008,52.323 c-3.756-2.849-9.111-2.113-11.959,1.643c-2.849,3.756-2.113,9.111,1.643,11.959l142.583,108.151 c10.144,7.494,23.989,7.494,34.133,0L471.034,65.925c1.805-1.368,2.992-3.398,3.299-5.642c0.307-2.244-0.29-4.518-1.661-6.321 C469.824,50.213,464.478,49.48,460.725,52.323z"/><path d="M238.517,174.793l-87.415,93.611c-3.214,3.447-3.025,8.848,0.422,12.062c3.447,3.214,8.848,3.025,12.062-0.422 l87.416-93.653c2.888-3.484,2.553-8.617-0.762-11.698C246.924,171.612,241.78,171.656,238.517,174.793z"/><path d="M384.728,174.793c-3.214-3.447-8.614-3.637-12.062-0.422c-3.447,3.214-3.637,8.614-0.422,12.062l87.39,93.611 c3.214,3.447,8.614,3.637,12.062,0.422c3.447-3.214,3.637-8.614,0.422-12.062L384.728,174.793z"/></symbol><symbol id="cook" viewBox="0 0 512 512"><title>cook</title><g> <g> <path d="M499.5,30.517h-7.386v-2.567c0-6.892-5.607-12.5-12.5-12.5h-38.911c-6.893,0-12.5,5.608-12.5,12.5v107.495 c0,3.731,1.652,7.076,4.253,9.369v241.842c0,0.066,0.009,0.131,0.01,0.197c0.001,0.067-0.005,0.135-0.003,0.202 c0.736,21.012,5.168,38.923,12.161,49.141c1.838,2.683,4.811,4.324,8.035,4.497v10.488c0,4.143,3.357,7.5,7.5,7.5 s7.5-3.357,7.5-7.5v-10.488c3.222-0.173,6.197-1.814,8.036-4.498c6.991-10.215,11.423-28.126,12.159-49.144 c0.002-0.065-0.004-0.131-0.003-0.196c0.002-0.066,0.01-0.132,0.01-0.199V144.814c2.601-2.293,4.253-5.638,4.253-9.369v-32.444 c0-4.143-3.357-7.5-7.5-7.5s-7.5,3.357-7.5,7.5v29.943h-33.911V30.449h33.911v42.552c0,4.143,3.357,7.5,7.5,7.5s7.5-3.357,7.5-7.5 V45.517H497v100.114c0,4.143,3.357,7.5,7.5,7.5s7.5-3.357,7.5-7.5V43.017C512,36.123,506.393,30.517,499.5,30.517z M464.548,425.727h-8.776c-4.151-7.428-7.116-20.086-8.077-34.455h24.929C471.662,405.642,468.698,418.301,464.548,425.727z M447.456,147.944h25.405V376.27h-25.405V147.944z"/> </g> </g><g> <g> <path d="M402.556,14.888H21.184C9.503,14.888,0,24.303,0,35.876v398.021c0,11.573,9.503,20.988,21.184,20.988h8.688v28.689 c0,4.908,2.729,9.364,7.122,11.631c1.878,0.969,3.992,1.48,6.112,1.48c2.657,0,5.223-0.779,7.412-2.249L67.887,482.8 l19.797,12.309c2.109,1.311,4.542,2.004,7.035,2.004c2.199,0,4.383-0.55,6.306-1.586c4.272-2.294,6.927-6.71,6.927-11.524v-29.118 h288.165c7.907,0,14.341-6.39,14.341-14.244V249.676c2.805-2.294,4.599-5.778,4.599-9.676V27.388 C415.056,20.495,409.448,14.888,402.556,14.888z M92.951,480.723l-21.256-13.216c-1.214-0.755-2.587-1.131-3.96-1.131 c-1.457,0-2.913,0.424-4.174,1.269l-18.69,12.521v-25.279h48.08V480.723z M342.039,439.886H67.09v-67.885 c0-4.143-3.357-7.5-7.5-7.5c-4.143,0-7.5,3.357-7.5,7.5v67.885H21.184c-3.409,0-6.184-2.687-6.184-5.988V35.876 c0-3.302,2.774-5.988,6.184-5.988H52.09v313.113c0,4.143,3.357,7.5,7.5,7.5s7.5-3.357,7.5-7.5V29.888h274.949V439.886z M395.457,439.886h-10.948V295.001c0-4.143-3.357-7.5-7.5-7.5s-7.5,3.357-7.5,7.5v144.885h-12.47V252.501h12.47v10.5 c0,4.143,3.357,7.5,7.5,7.5s7.5-3.357,7.5-7.5v-10.5h10.948V439.886z M400.056,237.501h-43.017v-55h43.017V237.501z M400.056,167.501h-43.017V108.68h43.017V167.501z M400.056,93.68h-43.017V29.888h43.017V93.68z"/> </g> </g><g> <g> <path d="M264.721,121.777c-10.462,0-20.349,3.677-28.161,10.417c-7.808-6.739-17.695-10.417-28.159-10.417 c-10.463,0-20.351,3.678-28.161,10.417c-7.808-6.738-17.696-10.417-28.16-10.417c-23.645,0-42.88,19.009-42.88,42.374 c0,21.91,17.221,40.224,38.99,42.189v63.86c0,4.143,3.357,7.5,7.5,7.5h105.42c4.143,0,7.5-3.357,7.5-7.5v-63.86 c21.767-1.964,38.99-20.278,38.99-42.189C307.6,140.787,288.364,121.777,264.721,121.777z M265.238,191.512 c-6.412,0.108-11.629,5.389-11.629,11.771v59.42h-20.621V227.78c0-4.143-3.357-7.5-7.5-7.5s-7.5,3.357-7.5,7.5v34.922H198.81 V227.78c0-4.143-3.357-7.5-7.5-7.5s-7.5,3.357-7.5,7.5v34.922h-20.621v-59.42c0-6.382-5.216-11.662-11.623-11.771 c-15.09-0.266-27.367-12.539-27.367-27.359c0-15.094,12.507-27.374,27.88-27.374c7.495,0,14.53,2.882,19.802,8.107 c2.231,2.219,5.2,3.44,8.358,3.44c3.155,0,6.123-1.221,8.352-3.434c5.278-5.231,12.313-8.113,19.81-8.113 c7.495,0,14.529,2.882,19.801,8.107c2.231,2.219,5.2,3.44,8.358,3.44c3.158,0,6.127-1.222,8.352-3.434 c5.278-5.231,12.313-8.113,19.81-8.113c15.372,0,27.879,12.28,27.879,27.374C292.6,178.973,280.323,191.246,265.238,191.512z"/> </g> </g><g> <g> <path d="M262.853,326.465H153.947c-4.143,0-7.5,3.357-7.5,7.5s3.357,7.5,7.5,7.5h108.905c4.143,0,7.501-3.358,7.501-7.5 C270.353,329.822,266.996,326.465,262.853,326.465z"/> </g> </g><g> <g> <path d="M244.889,360.503H171.91c-4.143,0-7.5,3.357-7.5,7.5c0,4.142,3.357,7.5,7.5,7.5h72.979c4.143,0,7.5-3.358,7.5-7.5 C252.389,363.86,249.032,360.503,244.889,360.503z"/> </g> </g><g> <g> <path d="M460.159,235.657c-4.143,0-7.5,3.357-7.5,7.5v70.622c0,4.143,3.357,7.5,7.5,7.5s7.5-3.357,7.5-7.5v-70.622 C467.659,239.014,464.302,235.657,460.159,235.657z"/> </g> </g><g> <g> <path d="M460.159,200.691c-4.143,0-7.5,3.357-7.5,7.5v7.581c0,4.143,3.357,7.5,7.5,7.5s7.5-3.357,7.5-7.5v-7.581 C467.659,204.048,464.302,200.691,460.159,200.691z"/> </g> </g></symbol><symbol id="calendar-1" viewBox="0 0 58 58"><title>calendar-1</title><path d="M46,34c-6.617,0-12,5.383-12,12s5.383,12,12,12s12-5.383,12-12S52.617,34,46,34z M46,56c-5.514,0-10-4.486-10-10 s4.486-10,10-10s10,4.486,10,10S51.514,56,46,56z"/><path d="M52,45h-5v-5c0-0.553-0.447-1-1-1s-1,0.447-1,1v6c0,0.553,0.447,1,1,1h6c0.553,0,1-0.447,1-1S52.553,45,52,45z"/><path d="M27,21h-2h-7h-2H7v9v2v7v2v9h9h2h9v-9v-2v-7h7h2h9V21h-9h-2H27z M36,23h7v7h-7V23z M18,23h7v7h-7V23z M9,23h7v7H9V23z M9,32h7v7H9V32z M16,48H9v-7h7V48z M25,48h-7v-7h7V48z M25,39h-7v-7h7V39z M34,30h-7v-7h7V30z"/><path d="M33,55H2V16h48v13c0,0.553,0.447,1,1,1s1-0.447,1-1V15V5c0-0.553-0.447-1-1-1h-5V1c0-0.553-0.447-1-1-1h-7 c-0.553,0-1,0.447-1,1v3H15V1c0-0.553-0.447-1-1-1H7C6.447,0,6,0.447,6,1v3H1C0.447,4,0,4.447,0,5v10v41c0,0.553,0.447,1,1,1h32 c0.553,0,1-0.447,1-1S33.553,55,33,55z M39,2h5v3v3h-5V5V2z M8,2h5v3v3H8V5V2z M2,6h4v3c0,0.553,0.447,1,1,1h7c0.553,0,1-0.447,1-1 V6h22v3c0,0.553,0.447,1,1,1h7c0.553,0,1-0.447,1-1V6h4v8H2V6z"/></symbol></svg>