<svg aria-hidden="true" style="position: absolute; width: 0; height: 0; overflow: hidden;" version="1.1" xmlns="http://www.w3.org/2000/svg" xmlns:xlink="http://www.w3.org/1999/xlink">
<defs>
<symbol id="icon-alarm" viewBox="0 0 24 24">
<title>alarm</title>
<path d="M12 20.016c3.891 0 6.984-3.141 6.984-7.031s-3.094-6.984-6.984-6.984-6.984 3.094-6.984 6.984 3.094 7.031 6.984 7.031zM12 3.984c4.969 0 9 4.031 9 9s-4.031 9-9 9-9-4.031-9-9 4.031-9 9-9zM12.516 8.016v5.25l3.984 2.344-0.75 1.219-4.734-2.813v-6h1.5zM7.875 3.375l-4.594 3.844-1.266-1.5 4.594-3.844zM21.984 5.719l-1.266 1.547-4.594-3.891 1.266-1.5z"></path>
</symbol>
<symbol id="icon-account_circle" viewBox="0 0 24 24">
<title>account_circle</title>
<path d="M12 19.219c2.484 0 4.688-1.313 6-3.234-0.047-1.969-4.031-3.094-6-3.094-2.016 0-5.953 1.125-6 3.094 1.313 1.922 3.516 3.234 6 3.234zM12 5.016c-1.641 0-3 1.359-3 3s1.359 3 3 3 3-1.359 3-3-1.359-3-3-3zM12 2.016c5.531 0 9.984 4.453 9.984 9.984s-4.453 9.984-9.984 9.984-9.984-4.453-9.984-9.984 4.453-9.984 9.984-9.984z"></path>
</symbol>
<symbol id="icon-add_a_photo" viewBox="0 0 24 24">
<title>add_a_photo</title>
<path d="M9.797 14.016c0-1.781 1.406-3.234 3.188-3.234s3.234 1.453 3.234 3.234-1.453 3.188-3.234 3.188-3.188-1.406-3.188-3.188zM12.984 18.984c2.766 0 5.016-2.203 5.016-4.969s-2.25-5.016-5.016-5.016-4.969 2.25-4.969 5.016 2.203 4.969 4.969 4.969zM6 9.984v-3h3v-3h6.984l1.828 2.016h3.188c1.078 0 2.016 0.938 2.016 2.016v12c0 1.078-0.938 1.969-2.016 1.969h-15.984c-1.078 0-2.016-0.891-2.016-1.969v-10.031h3zM3 3.984v-3h2.016v3h3v2.016h-3v3h-2.016v-3h-3v-2.016h3z"></path>
</symbol>
<symbol id="icon-add_circle" viewBox="0 0 24 24">
<title>add_circle</title>
<path d="M17.016 12.984v-1.969h-4.031v-4.031h-1.969v4.031h-4.031v1.969h4.031v4.031h1.969v-4.031h4.031zM12 2.016c5.531 0 9.984 4.453 9.984 9.984s-4.453 9.984-9.984 9.984-9.984-4.453-9.984-9.984 4.453-9.984 9.984-9.984z"></path>
</symbol>
<symbol id="icon-assignment" viewBox="0 0 24 24">
<title>assignment</title>
<path d="M17.016 9v-2.016h-10.031v2.016h10.031zM17.016 12.984v-1.969h-10.031v1.969h10.031zM14.016 17.016v-2.016h-7.031v2.016h7.031zM12 3c-0.563 0-0.984 0.422-0.984 0.984s0.422 1.031 0.984 1.031 0.984-0.469 0.984-1.031-0.422-0.984-0.984-0.984zM18.984 3c1.078 0 2.016 0.938 2.016 2.016v13.969c0 1.078-0.938 2.016-2.016 2.016h-13.969c-1.078 0-2.016-0.938-2.016-2.016v-13.969c0-1.078 0.938-2.016 2.016-2.016h4.172c0.422-1.172 1.5-2.016 2.813-2.016s2.391 0.844 2.813 2.016h4.172z"></path>
</symbol>
<symbol id="icon-audiotrack" viewBox="0 0 24 24">
<title>audiotrack</title>
<path d="M12 3h6.984v3h-3.984v11.016h-0.047c-0.234 2.25-2.156 3.984-4.453 3.984-2.484 0-4.5-2.016-4.5-4.5s2.016-4.5 4.5-4.5c0.516 0 1.031 0.094 1.5 0.281v-9.281z"></path>
</symbol>
<symbol id="icon-border_color" viewBox="0 0 24 24">
<title>border_color</title>
<path d="M0 20.016h24v3.984h-24v-3.984zM20.719 4.031l-1.969 1.969-3.75-3.75 1.969-1.969c0.375-0.375 1.031-0.375 1.406 0l2.344 2.344c0.375 0.375 0.375 1.031 0 1.406zM17.766 6.984l-10.031 10.031h-3.75v-3.75l10.031-10.031z"></path>
</symbol>
<symbol id="icon-phone" viewBox="0 0 24 24">
<title>phone</title>
<path d="M6.609 10.781c1.453 2.813 3.797 5.156 6.609 6.609l2.203-2.203c0.281-0.281 0.703-0.375 1.031-0.234 1.125 0.375 2.344 0.563 3.563 0.563 0.563 0 0.984 0.422 0.984 0.984v3.516c0 0.563-0.422 0.984-0.984 0.984-9.375 0-17.016-7.641-17.016-17.016 0-0.563 0.422-0.984 0.984-0.984h3.516c0.563 0 0.984 0.422 0.984 0.984 0 1.266 0.188 2.438 0.563 3.563 0.094 0.328 0.047 0.75-0.234 1.031z"></path>
</symbol>
<symbol id="icon-cancel" viewBox="0 0 24 24">
<title>cancel</title>
<path d="M17.016 15.609l-3.609-3.609 3.609-3.609-1.406-1.406-3.609 3.609-3.609-3.609-1.406 1.406 3.609 3.609-3.609 3.609 1.406 1.406 3.609-3.609 3.609 3.609zM12 2.016c5.531 0 9.984 4.453 9.984 9.984s-4.453 9.984-9.984 9.984-9.984-4.453-9.984-9.984 4.453-9.984 9.984-9.984z"></path>
</symbol>
<symbol id="icon-chat" viewBox="0 0 24 24">
<title>chat</title>
<path d="M18 8.016v-2.016h-12v2.016h12zM14.016 14.016v-2.016h-8.016v2.016h8.016zM6 9v2.016h12v-2.016h-12zM20.016 2.016c1.078 0 1.969 0.891 1.969 1.969v12c0 1.078-0.891 2.016-1.969 2.016h-14.016l-3.984 3.984v-18c0-1.078 0.891-1.969 1.969-1.969h16.031z"></path>
</symbol>
<symbol id="icon-check" viewBox="0 0 24 24">
<title>check</title>
<path d="M9 16.172l10.594-10.594 1.406 1.406-12 12-5.578-5.578 1.406-1.406z"></path>
</symbol>
<symbol id="icon-navigate_before" viewBox="0 0 24 24">
<title>navigate_before</title>
<path d="M15.422 7.406l-4.594 4.594 4.594 4.594-1.406 1.406-6-6 6-6z"></path>
</symbol>
<symbol id="icon-navigate_next" viewBox="0 0 24 24">
<title>navigate_next</title>
<path d="M9.984 6l6 6-6 6-1.406-1.406 4.594-4.594-4.594-4.594z"></path>
</symbol>
<symbol id="icon-close" viewBox="0 0 24 24">
<title>close</title>
<path d="M18.984 6.422l-5.578 5.578 5.578 5.578-1.406 1.406-5.578-5.578-5.578 5.578-1.406-1.406 5.578-5.578-5.578-5.578 1.406-1.406 5.578 5.578 5.578-5.578z"></path>
</symbol>
<symbol id="icon-delete" viewBox="0 0 24 24">
<title>delete</title>
<path d="M18.984 3.984v2.016h-13.969v-2.016h3.469l1.031-0.984h4.969l1.031 0.984h3.469zM6 18.984v-12h12v12c0 1.078-0.938 2.016-2.016 2.016h-7.969c-1.078 0-2.016-0.938-2.016-2.016z"></path>
</symbol>
<symbol id="icon-error" viewBox="0 0 24 24">
<title>error</title>
<path d="M12.984 12.984v-6h-1.969v6h1.969zM12.984 17.016v-2.016h-1.969v2.016h1.969zM12 2.016c5.531 0 9.984 4.453 9.984 9.984s-4.453 9.984-9.984 9.984-9.984-4.453-9.984-9.984 4.453-9.984 9.984-9.984z"></path>
</symbol>
<symbol id="icon-error_outline" viewBox="0 0 24 24">
<title>error_outline</title>
<path d="M12 20.016c4.406 0 8.016-3.609 8.016-8.016s-3.609-8.016-8.016-8.016-8.016 3.609-8.016 8.016 3.609 8.016 8.016 8.016zM12 2.016c5.531 0 9.984 4.453 9.984 9.984s-4.453 9.984-9.984 9.984-9.984-4.453-9.984-9.984 4.453-9.984 9.984-9.984zM11.016 6.984h1.969v6h-1.969v-6zM11.016 15h1.969v2.016h-1.969v-2.016z"></path>
</symbol>
<symbol id="icon-euro_symbol" viewBox="0 0 24 24">
<title>euro_symbol</title>
<path d="M15 18.516c1.641 0 3.094-0.609 4.219-1.594l1.781 1.781c-1.594 1.453-3.703 2.297-6 2.297-3.938 0-7.266-2.531-8.484-6h-3.516v-2.016h3.047c-0.047-0.328-0.047-0.656-0.047-0.984s0-0.656 0.047-0.984h-3.047v-2.016h3.516c1.219-3.469 4.547-6 8.484-6 2.297 0 4.406 0.844 6 2.297l-1.781 1.781c-1.125-0.984-2.625-1.594-4.219-1.594-2.484 0-4.688 1.453-5.766 3.516h5.766v2.016h-6.422c-0.047 0.328-0.094 0.656-0.094 0.984s0.047 0.656 0.094 0.984h6.422v2.016h-5.766c1.078 2.063 3.234 3.516 5.766 3.516z"></path>
</symbol>
<symbol id="icon-event_available" viewBox="0 0 24 24">
<title>event_available</title>
<path d="M18.984 18.984v-10.969h-13.969v10.969h13.969zM18.984 3c1.078 0 2.016 0.938 2.016 2.016v13.969c0 1.078-0.938 2.016-2.016 2.016h-13.969c-1.125 0-2.016-0.938-2.016-2.016v-13.969c0-1.078 0.891-2.016 2.016-2.016h0.984v-2.016h2.016v2.016h7.969v-2.016h2.016v2.016h0.984zM16.547 11.063l-5.953 5.953-3.188-3.188 1.078-1.078 2.109 2.109 4.875-4.875z"></path>
</symbol>
<symbol id="icon-explore" viewBox="0 0 24 24">
<title>explore</title>
<path d="M14.203 14.203l3.797-8.203-8.203 3.797-3.797 8.203zM12 2.016c5.531 0 9.984 4.453 9.984 9.984s-4.453 9.984-9.984 9.984-9.984-4.453-9.984-9.984 4.453-9.984 9.984-9.984zM12 10.922c0.609 0 1.078 0.469 1.078 1.078s-0.469 1.078-1.078 1.078-1.078-0.469-1.078-1.078 0.469-1.078 1.078-1.078z"></path>
</symbol>
<symbol id="icon-face" viewBox="0 0 24 24">
<title>face</title>
<path d="M12 20.016c4.406 0 8.016-3.609 8.016-8.016 0-0.797-0.141-1.547-0.328-2.25-0.703 0.188-1.453 0.234-2.25 0.234-3.375 0-6.328-1.641-8.156-4.219-0.984 2.391-2.906 4.359-5.25 5.391-0.047 0.281-0.047 0.563-0.047 0.844 0 4.406 3.609 8.016 8.016 8.016zM12 2.016c5.531 0 9.984 4.453 9.984 9.984s-4.453 9.984-9.984 9.984-9.984-4.453-9.984-9.984 4.453-9.984 9.984-9.984zM15 11.766c0.703 0 1.266 0.516 1.266 1.219s-0.563 1.266-1.266 1.266-1.266-0.563-1.266-1.266 0.563-1.219 1.266-1.219zM9 11.766c0.703 0 1.266 0.516 1.266 1.219s-0.563 1.266-1.266 1.266-1.266-0.563-1.266-1.266 0.563-1.219 1.266-1.219z"></path>
</symbol>
<symbol id="icon-favorite" viewBox="0 0 24 24">
<title>favorite</title>
<path d="M12 21.328l-1.453-1.313c-5.156-4.688-8.531-7.734-8.531-11.531 0-3.094 2.391-5.484 5.484-5.484 1.734 0 3.422 0.844 4.5 2.109 1.078-1.266 2.766-2.109 4.5-2.109 3.094 0 5.484 2.391 5.484 5.484 0 3.797-3.375 6.891-8.531 11.578z"></path>
</symbol>
<symbol id="icon-favorite_border" viewBox="0 0 24 24">
<title>favorite_border</title>
<path d="M12.094 18.563c4.781-4.313 7.922-7.172 7.922-10.078 0-2.016-1.5-3.469-3.516-3.469-1.547 0-3.047 0.984-3.563 2.344h-1.875c-0.516-1.359-2.016-2.344-3.563-2.344-2.016 0-3.516 1.453-3.516 3.469 0 2.906 3.141 5.766 7.922 10.078l0.094 0.094zM16.5 3c3.094 0 5.484 2.391 5.484 5.484 0 3.797-3.375 6.844-8.531 11.531l-1.453 1.313-1.453-1.266c-5.156-4.688-8.531-7.781-8.531-11.578 0-3.094 2.391-5.484 5.484-5.484 1.734 0 3.422 0.844 4.5 2.109 1.078-1.266 2.766-2.109 4.5-2.109z"></path>
</symbol>
<symbol id="icon-format_quote" viewBox="0 0 24 24">
<title>format_quote</title>
<path d="M14.016 17.016l1.969-4.031h-3v-6h6v6l-1.969 4.031h-3zM6 17.016l2.016-4.031h-3v-6h6v6l-2.016 4.031h-3z"></path>
</symbol>
<symbol id="icon-home" viewBox="0 0 24 24">
<title>home</title>
<path d="M9.984 20.016h-4.969v-8.016h-3l9.984-9 9.984 9h-3v8.016h-4.969v-6h-4.031v6z"></path>
</symbol>
<symbol id="icon-hourglass_empty" viewBox="0 0 24 24">
<title>hourglass_empty</title>
<path d="M12 11.484l3.984-3.984v-3.516h-7.969v3.516zM15.984 16.5l-3.984-3.984-3.984 3.984v3.516h7.969v-3.516zM6 2.016h12v6l-3.984 3.984 3.984 3.984v6h-12v-6l3.984-3.984-3.984-3.984v-6z"></path>
</symbol>
<symbol id="icon-hourglass_full" viewBox="0 0 24 24">
<title>hourglass_full</title>
<path d="M6 2.016h12v6l-3.984 3.984 3.984 3.984v6h-12v-6l3.984-3.984-3.984-3.984v-6z"></path>
</symbol>
<symbol id="icon-lock" viewBox="0 0 24 24">
<title>lock</title>
<path d="M15.094 8.016v-2.016c0-1.688-1.406-3.094-3.094-3.094s-3.094 1.406-3.094 3.094v2.016h6.188zM12 17.016c1.078 0 2.016-0.938 2.016-2.016s-0.938-2.016-2.016-2.016-2.016 0.938-2.016 2.016 0.938 2.016 2.016 2.016zM18 8.016c1.078 0 2.016 0.891 2.016 1.969v10.031c0 1.078-0.938 1.969-2.016 1.969h-12c-1.078 0-2.016-0.891-2.016-1.969v-10.031c0-1.078 0.938-1.969 2.016-1.969h0.984v-2.016c0-2.766 2.25-5.016 5.016-5.016s5.016 2.25 5.016 5.016v2.016h0.984z"></path>
</symbol>
<symbol id="icon-info" viewBox="0 0 24 24">
<title>info</title>
<path d="M12.984 9v-2.016h-1.969v2.016h1.969zM12.984 17.016v-6h-1.969v6h1.969zM12 2.016c5.531 0 9.984 4.453 9.984 9.984s-4.453 9.984-9.984 9.984-9.984-4.453-9.984-9.984 4.453-9.984 9.984-9.984z"></path>
</symbol>
<symbol id="icon-info_outline" viewBox="0 0 24 24">
<title>info_outline</title>
<path d="M11.016 9v-2.016h1.969v2.016h-1.969zM12 20.016c4.406 0 8.016-3.609 8.016-8.016s-3.609-8.016-8.016-8.016-8.016 3.609-8.016 8.016 3.609 8.016 8.016 8.016zM12 2.016c5.531 0 9.984 4.453 9.984 9.984s-4.453 9.984-9.984 9.984-9.984-4.453-9.984-9.984 4.453-9.984 9.984-9.984zM11.016 17.016v-6h1.969v6h-1.969z"></path>
</symbol>
<symbol id="icon-insert_drive_file" viewBox="0 0 24 24">
<title>insert_drive_file</title>
<path d="M12.984 9h5.531l-5.531-5.484v5.484zM6 2.016h8.016l6 6v12c0 1.078-0.938 1.969-2.016 1.969h-12c-1.078 0-2.016-0.891-2.016-1.969l0.047-16.031c0-1.078 0.891-1.969 1.969-1.969z"></path>
</symbol>
<symbol id="icon-keyboard_hide" viewBox="0 0 24 24">
<title>keyboard_hide</title>
<path d="M12 23.016l-3.984-4.031h7.969zM18.984 8.016v-2.016h-1.969v2.016h1.969zM18.984 11.016v-2.016h-1.969v2.016h1.969zM15.984 8.016v-2.016h-1.969v2.016h1.969zM15.984 11.016v-2.016h-1.969v2.016h1.969zM15.984 15v-2.016h-7.969v2.016h7.969zM6.984 8.016v-2.016h-1.969v2.016h1.969zM6.984 11.016v-2.016h-1.969v2.016h1.969zM8.016 9v2.016h1.969v-2.016h-1.969zM8.016 6v2.016h1.969v-2.016h-1.969zM11.016 9v2.016h1.969v-2.016h-1.969zM11.016 6v2.016h1.969v-2.016h-1.969zM20.016 3c1.078 0 1.969 0.938 1.969 2.016v9.984c0 1.078-0.891 2.016-1.969 2.016h-16.031c-1.078 0-1.969-0.938-1.969-2.016v-9.984c0-1.078 0.891-2.016 1.969-2.016h16.031z"></path>
</symbol>
<symbol id="icon-live_help" viewBox="0 0 24 24">
<title>live_help</title>
<path d="M15.047 10.266c0.563-0.563 0.938-1.359 0.938-2.25 0-2.203-1.781-4.031-3.984-4.031s-3.984 1.828-3.984 4.031h1.969c0-1.078 0.938-2.016 2.016-2.016s2.016 0.938 2.016 2.016c0 0.563-0.234 1.031-0.609 1.406l-1.219 1.266c-0.703 0.75-1.172 1.734-1.172 2.813v0.516h1.969c0-1.5 0.469-2.109 1.172-2.859zM12.984 18v-2.016h-1.969v2.016h1.969zM18.984 2.016c1.078 0 2.016 0.891 2.016 1.969v14.016c0 1.078-0.938 2.016-2.016 2.016h-3.984l-3 3-3-3h-3.984c-1.125 0-2.016-0.938-2.016-2.016v-14.016c0-1.078 0.891-1.969 2.016-1.969h13.969z"></path>
</symbol>
<symbol id="icon-local_bar" viewBox="0 0 24 24">
<title>local_bar</title>
<path d="M7.453 6.984h9.094l1.781-1.969h-12.656zM21 5.016l-8.016 9v4.969h5.016v2.016h-12v-2.016h5.016v-4.969l-8.016-9v-2.016h18v2.016z"></path>
</symbol>
<symbol id="icon-local_cafe" viewBox="0 0 24 24">
<title>local_cafe</title>
<path d="M2.016 21v-2.016h18v2.016h-18zM20.016 8.016v-3h-2.016v3h2.016zM20.016 3c1.125 0 1.969 0.891 1.969 2.016v3c0 1.125-0.844 1.969-1.969 1.969h-2.016v3c0 2.203-1.781 4.031-3.984 4.031h-6c-2.203 0-4.031-1.828-4.031-4.031v-9.984h16.031z"></path>
</symbol>
<symbol id="icon-restaurant_menu" viewBox="0 0 24 24">
<title>restaurant_menu</title>
<path d="M14.859 11.531l-1.453 1.453 6.891 6.891-1.406 1.406-6.891-6.891-6.891 6.891-1.406-1.406 9.75-9.75c-0.703-1.547-0.188-3.703 1.406-5.297 1.922-1.922 4.641-2.25 6.094-0.797s1.125 4.219-0.797 6.141c-1.594 1.594-3.75 2.063-5.297 1.359zM8.109 13.359l-4.219-4.219c-1.547-1.547-1.547-4.078 0-5.625l7.031 6.984z"></path>
</symbol>
<symbol id="icon-room" viewBox="0 0 24 24">
<title>room</title>
<path d="M12 11.484c1.359 0 2.484-1.125 2.484-2.484s-1.125-2.484-2.484-2.484-2.484 1.125-2.484 2.484 1.125 2.484 2.484 2.484zM12 2.016c3.891 0 6.984 3.094 6.984 6.984 0 5.25-6.984 12.984-6.984 12.984s-6.984-7.734-6.984-12.984c0-3.891 3.094-6.984 6.984-6.984z"></path>
</symbol>
<symbol id="icon-mail_outline" viewBox="0 0 24 24">
<title>mail_outline</title>
<path d="M12 11.016l8.016-5.016h-16.031zM20.016 18v-9.984l-8.016 4.969-8.016-4.969v9.984h16.031zM20.016 3.984c1.078 0 1.969 0.938 1.969 2.016v12c0 1.078-0.891 2.016-1.969 2.016h-16.031c-1.078 0-1.969-0.938-1.969-2.016v-12c0-1.078 0.891-2.016 1.969-2.016h16.031z"></path>
</symbol>
<symbol id="icon-person" viewBox="0 0 24 24">
<title>person</title>
<path d="M12 14.016c2.672 0 8.016 1.313 8.016 3.984v2.016h-16.031v-2.016c0-2.672 5.344-3.984 8.016-3.984zM12 12c-2.203 0-3.984-1.781-3.984-3.984s1.781-4.031 3.984-4.031 3.984 1.828 3.984 4.031-1.781 3.984-3.984 3.984z"></path>
</symbol>
<symbol id="icon-person_add" viewBox="0 0 24 24">
<title>person_add</title>
<path d="M15 14.016c2.672 0 8.016 1.313 8.016 3.984v2.016h-16.031v-2.016c0-2.672 5.344-3.984 8.016-3.984zM6 9.984h3v2.016h-3v3h-2.016v-3h-3v-2.016h3v-3h2.016v3zM15 12c-2.203 0-3.984-1.781-3.984-3.984s1.781-4.031 3.984-4.031 3.984 1.828 3.984 4.031-1.781 3.984-3.984 3.984z"></path>
</symbol>
<symbol id="icon-person_pin" viewBox="0 0 24 24">
<title>person_pin</title>
<path d="M18 15.984v-0.891c0-2.016-3.984-3.094-6-3.094s-6 1.078-6 3.094v0.891h12zM12 5.297c-1.5 0-2.719 1.219-2.719 2.719s1.219 2.672 2.719 2.672 2.719-1.172 2.719-2.672-1.219-2.719-2.719-2.719zM18.984 2.016c1.078 0 2.016 0.891 2.016 1.969v14.016c0 1.078-0.938 2.016-2.016 2.016h-3.984l-3 3-3-3h-3.984c-1.125 0-2.016-0.938-2.016-2.016v-14.016c0-1.078 0.891-1.969 2.016-1.969h13.969z"></path>
</symbol>
<symbol id="icon-power_settings_new" viewBox="0 0 24 24">
<title>power_settings_new</title>
<path d="M17.813 5.156c1.922 1.641 3.188 4.125 3.188 6.844 0 4.969-4.031 9-9 9s-9-4.031-9-9c0-2.719 1.266-5.203 3.188-6.844l1.406 1.406c-1.547 1.266-2.578 3.234-2.578 5.438 0 3.891 3.094 6.984 6.984 6.984s6.984-3.094 6.984-6.984c0-2.203-0.984-4.125-2.578-5.391zM12.984 3v9.984h-1.969v-9.984h1.969z"></path>
</symbol>
<symbol id="icon-room_service" viewBox="0 0 24 24">
<title>room_service</title>
<path d="M13.828 7.781c3.891 0.797 6.891 4.125 7.172 8.203h-18c0.281-4.078 3.281-7.406 7.172-8.203-0.094-0.234-0.188-0.516-0.188-0.797 0-1.078 0.938-1.969 2.016-1.969s2.016 0.891 2.016 1.969c0 0.281-0.094 0.563-0.188 0.797zM2.016 17.016h19.969v1.969h-19.969v-1.969z"></path>
</symbol>
<symbol id="icon-vpn_key" viewBox="0 0 24 24">
<title>vpn_key</title>
<path d="M6.984 14.016c1.078 0 2.016-0.938 2.016-2.016s-0.938-2.016-2.016-2.016-1.969 0.938-1.969 2.016 0.891 2.016 1.969 2.016zM12.656 9.984h10.359v4.031h-2.016v3.984h-3.984v-3.984h-4.359c-0.797 2.344-3.047 3.984-5.672 3.984-3.328 0-6-2.672-6-6s2.672-6 6-6c2.625 0 4.875 1.641 5.672 3.984z"></path>
</symbol>
<symbol id="icon-watch_later" viewBox="0 0 24 24">
<title>watch_later</title>
<path d="M16.219 16.219l0.797-1.313-4.5-2.719v-5.203h-1.5v6zM12 2.016c5.484 0 9.984 4.5 9.984 9.984s-4.5 9.984-9.984 9.984-9.984-4.5-9.984-9.984 4.5-9.984 9.984-9.984z"></path>
</symbol>
<symbol id="icon-checkmark" viewBox="0 0 32 32">
<title>checkmark</title>
<path d="M31.706 7.133l-2.839-2.839c-0.393-0.393-1.026-0.393-1.419 0l-14.515 15.324-8.32-8.324c-0.397-0.397-1.041-0.397-1.438 0l-2.876 2.878c-0.397 0.396-0.397 1.040 0 1.438l11.833 12.108c0.229 0.23 0.54 0.309 0.839 0.27 0.309 0.046 0.631-0.032 0.868-0.27l17.867-19.165c0.392-0.392 0.392-1.028 0-1.42z"></path>
</symbol>
<symbol id="icon-cancel1" viewBox="0 0 32 32">
<title>cancel1</title>
<path d="M30.721 6.774l-9.197 9.253 9.197 9.198c0.385 0.384 0.385 1.007 0 1.392l-4.176 4.175c-0.383 0.385-1.006 0.385-1.391 0l-9.182-9.182-9.127 9.182c-0.384 0.385-1.007 0.385-1.392 0l-4.175-4.175c-0.384-0.385-0.384-1.008 0-1.392l9.127-9.182-9.126-9.126c-0.384-0.384-0.384-1.007 0-1.392l4.175-4.175c0.384-0.385 1.007-0.385 1.392 0l9.11 9.11 9.199-9.253c0.385-0.385 1.008-0.385 1.391 0l4.176 4.175c0.383 0.385 0.383 1.008-0.001 1.392z"></path>
</symbol>
<symbol id="icon-home1" viewBox="0 0 32 32">
<title>home1</title>
<path d="M32 18.451l-16-12.42-16 12.42v-5.064l16-12.42 16 12.42zM28 18v12h-8v-8h-8v8h-8v-12l12-9z"></path>
</symbol>
<symbol id="icon-pencil2" viewBox="0 0 32 32">
<title>pencil2</title>
<path d="M12 20l4-2 14-14-2-2-14 14-2 4zM9.041 27.097c-0.989-2.085-2.052-3.149-4.137-4.137l3.097-8.525 4-2.435 12-12h-6l-12 12-6 20 20-6 12-12v-6l-12 12-2.435 4z"></path>
</symbol>
<symbol id="icon-book" viewBox="0 0 32 32">
<title>book</title>
<path d="M28 4v26h-21c-1.657 0-3-1.343-3-3s1.343-3 3-3h19v-24h-20c-2.2 0-4 1.8-4 4v24c0 2.2 1.8 4 4 4h24v-28h-2z"></path>
<path d="M7.002 26v0c-0.001 0-0.001 0-0.002 0-0.552 0-1 0.448-1 1s0.448 1 1 1c0.001 0 0.001-0 0.002-0v0h18.997v-2h-18.997z"></path>
</symbol>
<symbol id="icon-cart" viewBox="0 0 32 32">
<title>cart</title>
<path d="M12 29c0 1.657-1.343 3-3 3s-3-1.343-3-3c0-1.657 1.343-3 3-3s3 1.343 3 3z"></path>
<path d="M32 29c0 1.657-1.343 3-3 3s-3-1.343-3-3c0-1.657 1.343-3 3-3s3 1.343 3 3z"></path>
<path d="M32 16v-12h-24c0-1.105-0.895-2-2-2h-6v2h4l1.502 12.877c-0.915 0.733-1.502 1.859-1.502 3.123 0 2.209 1.791 4 4 4h24v-2h-24c-1.105 0-2-0.895-2-2 0-0.007 0-0.014 0-0.020l26-3.98z"></path>
</symbol>
<symbol id="icon-download" viewBox="0 0 32 32">
<title>download</title>
<path d="M16 18l8-8h-6v-8h-4v8h-6zM23.273 14.727l-2.242 2.242 8.128 3.031-13.158 4.907-13.158-4.907 8.127-3.031-2.242-2.242-8.727 3.273v8l16 6 16-6v-8z"></path>
</symbol>
<symbol id="icon-upload" viewBox="0 0 32 32">
<title>upload</title>
<path d="M14 18h4v-8h6l-8-8-8 8h6zM20 13.5v3.085l9.158 3.415-13.158 4.907-13.158-4.907 9.158-3.415v-3.085l-12 4.5v8l16 6 16-6v-8z"></path>
</symbol>
<symbol id="icon-user-tie" viewBox="0 0 32 32">
<title>user-tie</title>
<path d="M10 6c0-3.314 2.686-6 6-6s6 2.686 6 6c0 3.314-2.686 6-6 6s-6-2.686-6-6zM24.002 14h-1.107l-6.222 12.633 2.327-11.633-3-3-3 3 2.327 11.633-6.222-12.633h-1.107c-3.998 0-3.998 2.687-3.998 6v10h24v-10c0-3.313 0-6-3.998-6z"></path>
</symbol>
<symbol id="icon-key" viewBox="0 0 32 32">
<title>key</title>
<path d="M22 0c-5.523 0-10 4.477-10 10 0 0.626 0.058 1.238 0.168 1.832l-12.168 12.168v6c0 1.105 0.895 2 2 2h2v-2h4v-4h4v-4h4l2.595-2.595c1.063 0.385 2.209 0.595 3.405 0.595 5.523 0 10-4.477 10-10s-4.477-10-10-10zM24.996 10.004c-1.657 0-3-1.343-3-3s1.343-3 3-3 3 1.343 3 3-1.343 3-3 3z"></path>
</symbol>
<symbol id="icon-hammer2" viewBox="0 0 32 32">
<title>hammer2</title>
<path d="M31.568 28.617l-17.145-15.608 0.798-0.8c0.653-0.655 1.006-1.501 1.060-2.363 0.031-0.014 0.063-0.028 0.092-0.045l3.218-2.013c0.435-0.512 0.404-1.321-0.071-1.797l-5.598-5.613c-0.475-0.476-1.281-0.508-1.792-0.071l-2.007 3.227c-0.016 0.030-0.031 0.061-0.045 0.093-0.859 0.054-1.703 0.408-2.356 1.063l-3.045 3.053c-0.653 0.655-1.006 1.501-1.060 2.363-0.031 0.014-0.063 0.029-0.093 0.045l-3.218 2.013c-0.436 0.512-0.404 1.321 0.071 1.797l5.598 5.613c0.475 0.476 1.281 0.508 1.792 0.071l2.007-3.227c0.017-0.030 0.031-0.061 0.045-0.093 0.859-0.054 1.703-0.408 2.356-1.063l0.884-0.887 15.566 17.191c0.451 0.498 1.147 0.579 1.546 0.178l1.574-1.578c0.399-0.4 0.319-1.098-0.178-1.55z"></path>
</symbol>
<symbol id="icon-bin" viewBox="0 0 32 32">
<title>bin</title>
<path d="M4 10v20c0 1.1 0.9 2 2 2h18c1.1 0 2-0.9 2-2v-20h-22zM10 28h-2v-14h2v14zM14 28h-2v-14h2v14zM18 28h-2v-14h2v14zM22 28h-2v-14h2v14z"></path>
<path d="M26.5 4h-6.5v-2.5c0-0.825-0.675-1.5-1.5-1.5h-7c-0.825 0-1.5 0.675-1.5 1.5v2.5h-6.5c-0.825 0-1.5 0.675-1.5 1.5v2.5h26v-2.5c0-0.825-0.675-1.5-1.5-1.5zM18 4h-6v-1.975h6v1.975z"></path>
</symbol>
<symbol id="icon-attachment" viewBox="0 0 32 32">
<title>attachment</title>
<path d="M20.807 10.22l-2.030-2.029-10.15 10.148c-1.682 1.681-1.682 4.408 0 6.089s4.408 1.681 6.090 0l12.18-12.178c2.804-2.802 2.804-7.346 0-10.148-2.802-2.803-7.347-2.803-10.149 0l-12.788 12.787c-0.009 0.009-0.019 0.018-0.027 0.026-3.909 3.909-3.909 10.245 0 14.153 3.908 3.908 10.246 3.908 14.156 0 0.009-0.009 0.016-0.018 0.026-0.027l0.001 0.001 8.729-8.728-2.031-2.029-8.729 8.727c-0.009 0.008-0.018 0.018-0.026 0.026-2.784 2.783-7.312 2.783-10.096 0-2.783-2.783-2.783-7.31 0-10.093 0.010-0.009 0.019-0.018 0.028-0.026l-0.001-0.002 12.79-12.786c1.678-1.679 4.411-1.679 6.090 0s1.678 4.411 0 6.089l-12.18 12.178c-0.56 0.56-1.47 0.56-2.030 0-0.559-0.559-0.559-1.47 0-2.029l10.15-10.149z"></path>
</symbol>
<symbol id="icon-bookmarks" viewBox="0 0 32 32">
<title>bookmarks</title>
<path d="M8 4v28l10-10 10 10v-28zM24 0h-20v28l2-2v-24h18z"></path>
</symbol>
<symbol id="icon-star-empty" viewBox="0 0 32 32">
<title>star-empty</title>
<path d="M32 12.408l-11.056-1.607-4.944-10.018-4.944 10.018-11.056 1.607 8 7.798-1.889 11.011 9.889-5.199 9.889 5.199-1.889-11.011 8-7.798zM16 23.547l-6.983 3.671 1.334-7.776-5.65-5.507 7.808-1.134 3.492-7.075 3.492 7.075 7.807 1.134-5.65 5.507 1.334 7.776-6.983-3.671z"></path>
</symbol>
<symbol id="icon-star-half" viewBox="0 0 32 32">
<title>star-half</title>
<path d="M32 12.408l-11.056-1.607-4.944-10.018-4.944 10.018-11.056 1.607 8 7.798-1.889 11.011 9.889-5.199 9.889 5.199-1.889-11.011 8-7.798zM16 23.547l-0.029 0.015 0.029-17.837 3.492 7.075 7.807 1.134-5.65 5.507 1.334 7.776-6.983-3.671z"></path>
</symbol>
<symbol id="icon-star-full" viewBox="0 0 32 32">
<title>star-full</title>
<path d="M32 12.408l-11.056-1.607-4.944-10.018-4.944 10.018-11.056 1.607 8 7.798-1.889 11.011 9.889-5.199 9.889 5.199-1.889-11.011 8-7.798z"></path>
</symbol>
<symbol id="icon-google3" viewBox="0 0 32 32">
<title>google3</title>
<path d="M16 0c-8.838 0-16 7.162-16 16s7.162 16 16 16 16-7.163 16-16-7.163-16-16-16zM16.238 28c-6.631 0-12-5.369-12-12s5.369-12 12-12c3.238 0 5.95 1.181 8.037 3.138l-3.256 3.138c-0.894-0.856-2.45-1.85-4.781-1.85-4.1 0-7.438 3.394-7.438 7.575s3.344 7.575 7.438 7.575c4.75 0 6.531-3.413 6.806-5.175h-6.806v-4.113h11.331c0.1 0.6 0.188 1.2 0.188 1.988 0.006 6.856-4.588 11.725-11.519 11.725z"></path>
</symbol>
<symbol id="icon-text-document" viewBox="0 0 20 20">
<title>text-document</title>
<path d="M16 1h-12c-0.553 0-1 0.447-1 1v16c0 0.552 0.447 1 1 1h12c0.553 0 1-0.448 1-1v-16c0-0.552-0.447-1-1-1zM15 17h-10v-14h10v14zM13 5h-6v2h6v-2zM13 13h-6v2h6v-2zM13 9h-6v2h6v-2z"></path>
</symbol>
<symbol id="icon-facebook" viewBox="0 0 20 20">
<title>facebook</title>
<path d="M17 1h-14c-1.1 0-2 0.9-2 2v14c0 1.101 0.9 2 2 2h7v-7h-2v-2.475h2v-2.050c0-2.164 1.212-3.684 3.766-3.684l1.803 0.002v2.605h-1.197c-0.994 0-1.372 0.746-1.372 1.438v1.69h2.568l-0.568 2.474h-2v7h4c1.1 0 2-0.899 2-2v-14c0-1.1-0.9-2-2-2z"></path>
</symbol>
<symbol id="icon-twitter" viewBox="0 0 20 20">
<title>twitter</title>
<path d="M17.316 6.246c0.008 0.162 0.011 0.326 0.011 0.488 0 4.99-3.797 10.742-10.74 10.742-2.133 0-4.116-0.625-5.787-1.697 0.296 0.035 0.596 0.053 0.9 0.053 1.77 0 3.397-0.604 4.688-1.615-1.651-0.031-3.046-1.121-3.526-2.621 0.23 0.043 0.467 0.066 0.71 0.066 0.345 0 0.679-0.045 0.995-0.131-1.727-0.348-3.028-1.873-3.028-3.703 0-0.016 0-0.031 0-0.047 0.509 0.283 1.092 0.453 1.71 0.473-1.013-0.678-1.68-1.832-1.68-3.143 0-0.691 0.186-1.34 0.512-1.898 1.861 2.285 4.644 3.787 7.781 3.945-0.064-0.277-0.097-0.564-0.097-0.861 0-2.084 1.689-3.773 3.774-3.773 1.086 0 2.067 0.457 2.756 1.191 0.859-0.17 1.667-0.484 2.397-0.916-0.282 0.881-0.881 1.621-1.66 2.088 0.764-0.092 1.49-0.293 2.168-0.594-0.506 0.758-1.146 1.422-1.884 1.953z"></path>
</symbol>
</defs>
</svg>
